<?xml version="1.0" encoding="UTF-8" standalone="no"?>
<svg
   xmlns:dc="http://purl.org/dc/elements/1.1/"
   xmlns:cc="http://creativecommons.org/ns#"
   xmlns:rdf="http://www.w3.org/1999/02/22-rdf-syntax-ns#"
   xmlns:svg="http://www.w3.org/2000/svg"
   xmlns="http://www.w3.org/2000/svg"
   xmlns:sodipodi="http://sodipodi.sourceforge.net/DTD/sodipodi-0.dtd"
   xmlns:inkscape="http://www.inkscape.org/namespaces/inkscape"
   width="410"
   height="170"
   viewBox="0 0 108.47916 44.97917"
   version="1.1"
   id="svg5"
   inkscape:version="1.0.2 (e86c870879, 2021-01-15, custom)"
   sodipodi:docname="logo_ico2.svg">
  <metadata
     id="metadata12">
    <rdf:RDF>
      <cc:Work
         rdf:about="">
        <dc:format>image/svg+xml</dc:format>
        <dc:type
           rdf:resource="http://purl.org/dc/dcmitype/StillImage" />
        <dc:title></dc:title>
      </cc:Work>
    </rdf:RDF>
  </metadata>
  <sodipodi:namedview
     id="namedview7"
     pagecolor="#ffffff"
     bordercolor="#111111"
     borderopacity="1"
     inkscape:pageshadow="0"
     inkscape:pageopacity="0"
     inkscape:pagecheckerboard="1"
     inkscape:document-units="px"
     showgrid="true"
     inkscape:zoom="1.8973437"
     inkscape:cx="256.5891"
     inkscape:cy="148.42613"
     inkscape:window-width="1920"
     inkscape:window-height="1017"
     inkscape:window-x="-8"
     inkscape:window-y="352"
     inkscape:window-maximized="1"
     inkscape:current-layer="layer1"
     width="600px"
     units="px"
     inkscape:document-rotation="0"
     showguides="true"
     inkscape:guide-bbox="true"
     inkscape:snap-nodes="false"
     inkscape:snap-global="true">
    <inkscape:grid
       type="xygrid"
       id="grid837" />
    <sodipodi:guide
       position="58.208329,58.208338"
       orientation="0,-1"
       id="guide841" />
    <sodipodi:guide
       position="63.499995,60.854172"
       orientation="0,-1"
       id="guide843" />
    <sodipodi:guide
       position="66.145828,74.08334"
       orientation="1,0"
       id="guide845" />
    <sodipodi:guide
       position="68.791662,52.916671"
       orientation="1,0"
       id="guide847" />
    <sodipodi:guide
       position="2.6458331,47.625004"
       orientation="1,0"
       id="guide849" />
    <sodipodi:guide
       position="108.47917,23.8125"
       orientation="1,0"
       id="guide851" />
    <sodipodi:guide
       position="84.66666,116.41668"
       orientation="0,-1"
       id="guide853" />
    <sodipodi:guide
       position="142.875,2.6458333"
       orientation="0,-1"
       id="guide855" />
    <sodipodi:guide
       position="105.83333,23.8125"
       orientation="1,0"
       id="guide1113" />
    <sodipodi:guide
       position="87.312493,5.2916671"
       orientation="0,-1"
       id="guide1115" />
  </sodipodi:namedview>
  <defs
     id="defs2" />
  <g
     inkscape:label="Layer 1"
     inkscape:groupmode="layer"
     id="layer1">
    <text
       xml:space="preserve"
       style="font-style:normal;font-weight:normal;font-size:19.7556px;line-height:1.25;font-family:sans-serif;fill:#01b1da;fill-opacity:1;stroke:none;stroke-width:0.264583"
       x="19.591099"
       y="37.464504"
       id="text858-8"><tspan
         sodipodi:role="line"
         id="tspan856-1"
         x="19.591099"
         y="37.464504"
         style="font-style:normal;font-variant:normal;font-weight:normal;font-stretch:normal;font-size:19.7556px;font-family:'Poiret One';-inkscape-font-specification:'Poiret One';fill:#01b1da;fill-opacity:1;stroke-width:0.264583">Yachting</tspan></text>
    <text
       xml:space="preserve"
       style="font-style:normal;font-weight:normal;font-size:22.5778px;line-height:1.25;font-family:sans-serif;opacity:1;fill:#ffffff;fill-opacity:1;stroke:none;stroke-width:0.264583;"
       x="1.7651253"
       y="21.438156"
       id="text995"><tspan
         sodipodi:role="line"
         x="1.7651253"
         y="21.438156"
         style="font-style:normal;font-variant:normal;font-weight:normal;font-stretch:normal;font-size:22.5778px;font-family:'Poiret One';-inkscape-font-specification:'Poiret One';fill:#ffffff;fill-opacity:1;stroke-width:0.264583;"
         id="tspan997">Athanasius</tspan></text>
    <text
       xml:space="preserve"
       style="font-style:normal;font-weight:normal;font-size:19.7556px;line-height:1.25;font-family:sans-serif;opacity:1;fill:#01b1da;fill-opacity:1;stroke:none;stroke-width:0.264583"
       x="19.257206"
       y="37.058159"
       id="text858"><tspan
         sodipodi:role="line"
         id="tspan856"
         x="19.257206"
         y="37.058159"
         style="font-style:normal;font-variant:normal;font-weight:normal;font-stretch:normal;font-size:19.7556px;font-family:'Poiret One';-inkscape-font-specification:'Poiret One';fill:#01b1da;fill-opacity:1;stroke-width:0.264583">Yachting</tspan></text>
    <text
       xml:space="preserve"
       style="font-style:normal;font-weight:normal;font-size:22.5778px;line-height:1.25;font-family:sans-serif;fill:#ffffff;fill-opacity:1;stroke:none;stroke-width:0.264583;"
       x="2.2652926"
       y="21.653934"
       id="text995-1"><tspan
         sodipodi:role="line"
         x="2.2652926"
         y="21.653934"
         style="font-style:normal;font-variant:normal;font-weight:normal;font-stretch:normal;font-size:22.5778px;font-family:'Poiret One';-inkscape-font-specification:'Poiret One';fill:#ffffff;fill-opacity:1;stroke-width:0.264583;"
         id="tspan997-4">Athanasius</tspan></text>
    <g
       inkscape:label="Layer 1"
       id="layer1-0"
       transform="matrix(0.28942027,0,0,0.28942027,28.627962,27.922478)"
       style="fill:#01b1da;fill-opacity:1">
      <circle
         style="opacity:0.996;fill:#01b1da;fill-opacity:1;stroke:none;stroke-width:2.10753"
         id="path2977"
         cx="16.933334"
         cy="16.933334"
         r="1.0583334" />
      <ellipse
         style="opacity:0.996;fill:#000000;fill-opacity:1;stroke:#01b1da;stroke-width:1.23243;stroke-miterlimit:4;stroke-dasharray:none;stroke-opacity:1"
         id="path2977-7"
         cx="16.933331"
         cy="16.933332"
         rx="2.294204"
         ry="2.294205" />
      <path
         id="path2999"
         style="fill:#000000;fill-opacity:1;stroke:none;stroke-width:0.999999px;stroke-linecap:butt;stroke-linejoin:miter;stroke-opacity:1"
         d="M 101.86719,52.927734 C 93.573738,52.74706 82.115492,70.067951 73.232422,73.269531 c -0.05613,0.02023 -0.118825,0.03687 -0.175781,0.05664 A 13,12.999999 0 0 1 64,77 13,12.999999 0 0 1 58.419922,75.740234 C 60.477555,79.384786 73.534497,101.67444 85,101 c 17,-1 32.46167,-28.874902 22.0332,-44.761719 -1.50617,-2.294519 -3.25214,-3.268853 -5.16601,-3.310547 z"
         transform="scale(0.26458334)" />
      <path
         id="path2999-5"
         style="fill:#000000;fill-opacity:1;stroke:none;stroke-width:0.264583px;stroke-linecap:butt;stroke-linejoin:miter;stroke-opacity:1"
         d="m 14.531308,27.035036 c 1.156571,-1.865374 -1.248959,-6.805678 -0.783735,-9.260282 0.0029,-0.01554 0.0076,-0.03206 0.01076,-0.04767 a 3.4395832,3.4395834 30.551887 0 1 0.380963,-2.557668 3.4395832,3.4395834 30.551887 0 1 1.037517,-1.101997 c -1.107151,-0.02134 -7.9419324,-0.04409 -9.3302862,2.659046 -2.0585225,4.00796 2.2133219,11.279885 7.2357012,11.040407 0.725376,-0.03459 1.1822,-0.301368 1.449101,-0.731838 z" />
      <path
         id="path2999-5-8"
         style="fill:#000000;fill-opacity:1;stroke:none;stroke-width:0.264583px;stroke-linecap:butt;stroke-linejoin:miter;stroke-opacity:1"
         d="m 9.6937316,9.4711555 c 0.9666064,1.9705205 6.4302394,2.5552265 8.2632354,4.2527675 0.01161,0.01078 0.02317,0.02341 0.0347,0.03441 a 3.4395834,3.4395832 62.622654 0 1 1.965069,1.680862 3.4395834,3.4395832 62.622654 0 1 0.382939,1.464309 C 20.945609,15.976635 24.593932,10.196972 23.040484,7.5852184 20.737173,3.712749 12.30679,3.4715332 9.8430046,7.8546168 9.4871626,8.4876609 9.4706736,9.0164215 9.6937376,9.4711565 Z" />
    </g>
    <g
       inkscape:label="Layer 1"
       id="layer1-0-2"
       transform="matrix(0.28942027,0,0,0.28942027,78.05905,27.988499)"
       style="fill:#000000;fill-opacity:1">
      <circle
         style="opacity:0.996;fill:#000000;fill-opacity:1;stroke:none;stroke-width:2.10753"
         id="path2977-5"
         cx="16.933334"
         cy="16.933334"
         r="1.0583334" />
      <ellipse
         style="opacity:0.996;fill:#01b1da;fill-opacity:1;stroke:#000000;stroke-width:1.23243;stroke-miterlimit:4;stroke-dasharray:none;stroke-opacity:1"
         id="path2977-7-5"
         cx="16.933331"
         cy="16.933332"
         rx="2.294204"
         ry="2.294205" />
      <path
         id="path2999-57"
         style="fill:#000000;fill-opacity:1;stroke:none;stroke-width:0.999999px;stroke-linecap:butt;stroke-linejoin:miter;stroke-opacity:1"
         d="M 101.86719,52.927734 C 93.573738,52.74706 82.115492,70.067951 73.232422,73.269531 c -0.05613,0.02023 -0.118825,0.03687 -0.175781,0.05664 A 13,12.999999 0 0 1 64,77 13,12.999999 0 0 1 58.419922,75.740234 C 60.477555,79.384786 73.534497,101.67444 85,101 c 17,-1 32.46167,-28.874902 22.0332,-44.761719 -1.50617,-2.294519 -3.25214,-3.268853 -5.16601,-3.310547 z"
         transform="scale(0.26458334)" />
      <path
         id="path2999-5-6"
         style="fill:#000000;fill-opacity:1;stroke:none;stroke-width:0.264583px;stroke-linecap:butt;stroke-linejoin:miter;stroke-opacity:1"
         d="m 14.531308,27.035036 c 1.156571,-1.865374 -1.248959,-6.805678 -0.783735,-9.260282 0.0029,-0.01554 0.0076,-0.03206 0.01076,-0.04767 a 3.4395832,3.4395834 30.551887 0 1 0.380963,-2.557668 3.4395832,3.4395834 30.551887 0 1 1.037517,-1.101997 c -1.107151,-0.02134 -7.9419324,-0.04409 -9.3302862,2.659046 -2.0585225,4.00796 2.2133219,11.279885 7.2357012,11.040407 0.725376,-0.03459 1.1822,-0.301368 1.449101,-0.731838 z" />
      <path
         id="path2999-5-8-9"
         style="fill:#000000;fill-opacity:1;stroke:none;stroke-width:0.264583px;stroke-linecap:butt;stroke-linejoin:miter;stroke-opacity:1"
         d="m 9.6937316,9.4711555 c 0.9666064,1.9705205 6.4302394,2.5552265 8.2632354,4.2527675 0.01161,0.01078 0.02317,0.02341 0.0347,0.03441 a 3.4395834,3.4395832 62.622654 0 1 1.965069,1.680862 3.4395834,3.4395832 62.622654 0 1 0.382939,1.464309 C 20.945609,15.976635 24.593932,10.196972 23.040484,7.5852184 20.737173,3.712749 12.30679,3.4715332 9.8430046,7.8546168 9.4871626,8.4876609 9.4706736,9.0164215 9.6937376,9.4711565 Z" />
    </g>
    <g
       inkscape:label="Layer 1"
       id="layer1-0-2-7"
       transform="matrix(0.32682329,0,0,0.32682329,37.818037,10.960655)"
       style="fill:#01b1da;fill-opacity:1">
      <circle
         style="opacity:0.996;fill:#01b1da;fill-opacity:1;stroke:none;stroke-width:2.10753"
         id="path2977-5-1"
         cx="16.933334"
         cy="16.933334"
         r="1.0583334" />
      <ellipse
         style="opacity:0.996;fill:#01b1da;fill-opacity:1;stroke:#000000;stroke-width:1.23243;stroke-miterlimit:4;stroke-dasharray:none;stroke-opacity:1"
         id="path2977-7-5-4"
         cx="16.933331"
         cy="16.933332"
         rx="2.294204"
         ry="2.294205" />
      <path
         id="path2999-57-1"
         style="fill:#01b1da;fill-opacity:1;stroke:none;stroke-width:0.999999px;stroke-linecap:butt;stroke-linejoin:miter;stroke-opacity:1"
         d="M 101.86719,52.927734 C 93.573738,52.74706 82.115492,70.067951 73.232422,73.269531 c -0.05613,0.02023 -0.118825,0.03687 -0.175781,0.05664 A 13,12.999999 0 0 1 64,77 13,12.999999 0 0 1 58.419922,75.740234 C 60.477555,79.384786 73.534497,101.67444 85,101 c 17,-1 32.46167,-28.874902 22.0332,-44.761719 -1.50617,-2.294519 -3.25214,-3.268853 -5.16601,-3.310547 z"
         transform="scale(0.26458334)" />
      <path
         id="path2999-5-6-5"
         style="fill:#01b1da;fill-opacity:1;stroke:none;stroke-width:0.264583px;stroke-linecap:butt;stroke-linejoin:miter;stroke-opacity:1"
         d="m 14.531308,27.035036 c 1.156571,-1.865374 -1.248959,-6.805678 -0.783735,-9.260282 0.0029,-0.01554 0.0076,-0.03206 0.01076,-0.04767 a 3.4395832,3.4395834 30.551887 0 1 0.380963,-2.557668 3.4395832,3.4395834 30.551887 0 1 1.037517,-1.101997 c -1.107151,-0.02134 -7.9419324,-0.04409 -9.3302862,2.659046 -2.0585225,4.00796 2.2133219,11.279885 7.2357012,11.040407 0.725376,-0.03459 1.1822,-0.301368 1.449101,-0.731838 z" />
      <path
         id="path2999-5-8-9-4"
         style="fill:#01b1da;fill-opacity:1;stroke:none;stroke-width:0.264583px;stroke-linecap:butt;stroke-linejoin:miter;stroke-opacity:1"
         d="m 9.6937316,9.4711555 c 0.9666064,1.9705205 6.4302394,2.5552265 8.2632354,4.2527675 0.01161,0.01078 0.02317,0.02341 0.0347,0.03441 a 3.4395834,3.4395832 62.622654 0 1 1.965069,1.680862 3.4395834,3.4395832 62.622654 0 1 0.382939,1.464309 C 20.945609,15.976635 24.593932,10.196972 23.040484,7.5852184 20.737173,3.712749 12.30679,3.4715332 9.8430046,7.8546168 9.4871626,8.4876609 9.4706736,9.0164215 9.6937376,9.4711565 Z" />
    </g>
    <g
       inkscape:label="Layer 1"
       id="layer1-0-2-1"
       transform="matrix(0.32735023,0,0,0.32735023,62.540131,10.827573)"
       style="fill:#01b1da;fill-opacity:1">
      <circle
         style="opacity:0.996;fill:#01b1da;fill-opacity:1;stroke:none;stroke-width:2.10753"
         id="path2977-5-9"
         cx="16.933334"
         cy="16.933334"
         r="1.0583334" />
      <ellipse
         style="opacity:0.996;fill:#01b1da;fill-opacity:1;stroke:#000000;stroke-width:1.23243;stroke-miterlimit:4;stroke-dasharray:none;stroke-opacity:1"
         id="path2977-7-5-8"
         cx="16.933331"
         cy="16.933332"
         rx="2.294204"
         ry="2.294205" />
      <path
         id="path2999-57-16"
         style="fill:#01b1da;fill-opacity:1;stroke:none;stroke-width:0.999999px;stroke-linecap:butt;stroke-linejoin:miter;stroke-opacity:1"
         d="M 101.86719,52.927734 C 93.573738,52.74706 82.115492,70.067951 73.232422,73.269531 c -0.05613,0.02023 -0.118825,0.03687 -0.175781,0.05664 A 13,12.999999 0 0 1 64,77 13,12.999999 0 0 1 58.419922,75.740234 C 60.477555,79.384786 73.534497,101.67444 85,101 c 17,-1 32.46167,-28.874902 22.0332,-44.761719 -1.50617,-2.294519 -3.25214,-3.268853 -5.16601,-3.310547 z"
         transform="scale(0.26458334)" />
      <path
         id="path2999-5-6-1"
         style="fill:#01b1da;fill-opacity:1;stroke:none;stroke-width:0.264583px;stroke-linecap:butt;stroke-linejoin:miter;stroke-opacity:1"
         d="m 14.531308,27.035036 c 1.156571,-1.865374 -1.248959,-6.805678 -0.783735,-9.260282 0.0029,-0.01554 0.0076,-0.03206 0.01076,-0.04767 a 3.4395832,3.4395834 30.551887 0 1 0.380963,-2.557668 3.4395832,3.4395834 30.551887 0 1 1.037517,-1.101997 c -1.107151,-0.02134 -7.9419324,-0.04409 -9.3302862,2.659046 -2.0585225,4.00796 2.2133219,11.279885 7.2357012,11.040407 0.725376,-0.03459 1.1822,-0.301368 1.449101,-0.731838 z" />
      <path
         id="path2999-5-8-9-2"
         style="fill:#01b1da;fill-opacity:1;stroke:none;stroke-width:0.264583px;stroke-linecap:butt;stroke-linejoin:miter;stroke-opacity:1"
         d="m 9.6937316,9.4711555 c 0.9666064,1.9705205 6.4302394,2.5552265 8.2632354,4.2527675 0.01161,0.01078 0.02317,0.02341 0.0347,0.03441 a 3.4395834,3.4395832 62.622654 0 1 1.965069,1.680862 3.4395834,3.4395832 62.622654 0 1 0.382939,1.464309 C 20.945609,15.976635 24.593932,10.196972 23.040484,7.5852184 20.737173,3.712749 12.30679,3.4715332 9.8430046,7.8546168 9.4871626,8.4876609 9.4706736,9.0164215 9.6937376,9.4711565 Z" />
    </g>
  </g>
</svg>
