<?xml version="1.0" encoding="UTF-8" standalone="no"?>
<svg
   xmlns:dc="http://purl.org/dc/elements/1.1/"
   xmlns:cc="http://creativecommons.org/ns#"
   xmlns:rdf="http://www.w3.org/1999/02/22-rdf-syntax-ns#"
   xmlns:svg="http://www.w3.org/2000/svg"
   xmlns="http://www.w3.org/2000/svg"
   xmlns:sodipodi="http://sodipodi.sourceforge.net/DTD/sodipodi-0.dtd"
   xmlns:inkscape="http://www.inkscape.org/namespaces/inkscape"
   width="510"
   height="450"
   viewBox="0 0 134.93749 119.06251"
   version="1.1"
   id="svg5"
   inkscape:version="1.0.2 (e86c870879, 2021-01-15, custom)"
   sodipodi:docname="logo_ico.svg">
  <metadata
     id="metadata12">
    <rdf:RDF>
      <cc:Work
         rdf:about="">
        <dc:format>image/svg+xml</dc:format>
        <dc:type
           rdf:resource="http://purl.org/dc/dcmitype/StillImage" />
      </cc:Work>
    </rdf:RDF>
  </metadata>
  <sodipodi:namedview
     id="namedview7"
     pagecolor="#ffffff"
     bordercolor="#111111"
     borderopacity="1"
     inkscape:pageshadow="0"
     inkscape:pageopacity="0"
     inkscape:pagecheckerboard="1"
     inkscape:document-units="mm"
     showgrid="true"
     inkscape:zoom="1.3416246"
     inkscape:cx="401.44001"
     inkscape:cy="258.46405"
     inkscape:window-width="1920"
     inkscape:window-height="1017"
     inkscape:window-x="-8"
     inkscape:window-y="352"
     inkscape:window-maximized="1"
     inkscape:current-layer="layer1"
     width="600px"
     units="px"
     inkscape:document-rotation="0"
     showguides="true"
     inkscape:guide-bbox="true">
    <inkscape:grid
       type="xygrid"
       id="grid837" />
    <sodipodi:guide
       position="58.208329,58.208338"
       orientation="0,-1"
       id="guide841" />
    <sodipodi:guide
       position="63.499995,60.854172"
       orientation="0,-1"
       id="guide843" />
    <sodipodi:guide
       position="66.145828,74.08334"
       orientation="1,0"
       id="guide845" />
    <sodipodi:guide
       position="68.791662,52.916671"
       orientation="1,0"
       id="guide847" />
    <sodipodi:guide
       position="2.6458331,47.625004"
       orientation="1,0"
       id="guide849" />
    <sodipodi:guide
       position="132.29166,42.333337"
       orientation="1,0"
       id="guide851" />
    <sodipodi:guide
       position="84.66666,116.41668"
       orientation="0,-1"
       id="guide853" />
    <sodipodi:guide
       position="92.60416,2.6458336"
       orientation="0,-1"
       id="guide855" />
  </sodipodi:namedview>
  <defs
     id="defs2" />
  <g
     inkscape:label="Layer 1"
     inkscape:groupmode="layer"
     id="layer1">
    <path
       style="fill:#01b1da;fill-opacity:1;stroke:none;stroke-width:0.205881px;stroke-linecap:butt;stroke-linejoin:miter;stroke-opacity:1"
       d="M 2.6458333,33.964415 C 83.239474,31.888331 120.94485,71.947962 131.7334,66.539534 c 1.3257,7.589937 -0.44678,13.567324 -6.24684,11.824383 C 98.266144,70.184082 72.809451,75.155891 45.723729,82.020833 23.727643,71.746229 42.232197,63.938982 2.6458333,33.964415 Z"
       id="path869"
       sodipodi:nodetypes="ccscc" />
    <path
       style="fill:#ffffff;fill-opacity:1;stroke:none;stroke-width:0.205881px;stroke-linecap:butt;stroke-linejoin:miter;stroke-opacity:1"
       d="M 15.204131,38.157266 C 37.051622,37.959369 83.187233,44.567764 114.79428,67.345843 69.723093,48.489362 35.355827,48.961879 35.355827,48.961879 39.510294,55.001052 39.395012,59.137766 45.139621,73.312583 33.257208,61.627361 36.961132,53.983281 15.204131,38.157266 Z"
       id="path1721"
       sodipodi:nodetypes="ccccc" />
    <path
       style="fill:#01b1da;fill-opacity:1;stroke:none;stroke-width:0.205881px;stroke-linecap:butt;stroke-linejoin:miter;stroke-opacity:1"
       d="M 48.395359,33.860515 C 65.50914,33.430568 98.661095,40.866074 110.89002,56.372231 96.509284,35.321038 83.484564,32.040755 75.164378,27.93713 66.844173,23.833505 72.142106,29.482071 48.395359,33.860515 Z"
       id="path2421"
       sodipodi:nodetypes="cczc" />
    <path
       style="fill:#01b1da;fill-opacity:1;stroke:none;stroke-width:0.143591px;stroke-linecap:butt;stroke-linejoin:miter;stroke-opacity:1"
       d="M 83.247969,24.629013 C 93.219828,28.70208 111.09123,42.904381 115.45194,57.886873 110.81635,38.11786 103.8578,32.263971 99.7638,26.991465 95.669815,21.718954 97.745929,27.39362 83.247969,24.629013 Z"
       id="path2421-7"
       sodipodi:nodetypes="cczc" />
    <path
       style="fill:#01b1da;fill-opacity:1;stroke:none;stroke-width:0.092737px;stroke-linecap:butt;stroke-linejoin:miter;stroke-opacity:1"
       d="m 108.14441,29.45975 c 4.73711,5.487594 11.7229,19.640976 10.91809,30.300243 1.69267,-13.73501 -0.95677,-19.448559 -2.11718,-23.954043 -1.16039,-4.505512 -1.22577,-0.343164 -8.80091,-6.3462 z"
       id="path2421-7-0"
       sodipodi:nodetypes="cczc" />
    <path
       style="fill:#01b1da;fill-opacity:1;stroke:none;stroke-width:0.19239px;stroke-linecap:butt;stroke-linejoin:miter;stroke-opacity:1"
       d="M 23.803112,74.118905 C 34.145433,100.74344 82.913094,59.670992 132.44666,93.954347 102.6653,78.56852 63.787743,91.098235 49.051282,91.0516 34.31482,91.00499 22.386913,88.777893 23.803112,74.118905 Z"
       id="path3134"
       sodipodi:nodetypes="cczc" />
  </g>
</svg>
