<?xml version="1.0" encoding="UTF-8" standalone="no"?>
<svg
   xmlns:dc="http://purl.org/dc/elements/1.1/"
   xmlns:cc="http://creativecommons.org/ns#"
   xmlns:rdf="http://www.w3.org/1999/02/22-rdf-syntax-ns#"
   xmlns:svg="http://www.w3.org/2000/svg"
   xmlns="http://www.w3.org/2000/svg"
   xmlns:sodipodi="http://sodipodi.sourceforge.net/DTD/sodipodi-0.dtd"
   xmlns:inkscape="http://www.inkscape.org/namespaces/inkscape"
   width="410"
   height="170"
   viewBox="0 0 108.47916 44.97917"
   version="1.1"
   id="svg5"
   inkscape:version="1.0.2 (e86c870879, 2021-01-15, custom)"
   sodipodi:docname="logo_ico2_objects.svg">
  <metadata
     id="metadata12">
    <rdf:RDF>
      <cc:Work
         rdf:about="">
        <dc:format>image/svg+xml</dc:format>
        <dc:type
           rdf:resource="http://purl.org/dc/dcmitype/StillImage" />
        <dc:title />
      </cc:Work>
    </rdf:RDF>
  </metadata>
  <sodipodi:namedview
     id="namedview7"
     pagecolor="#ffffff"
     bordercolor="#111111"
     borderopacity="1"
     inkscape:pageshadow="0"
     inkscape:pageopacity="0"
     inkscape:pagecheckerboard="1"
     inkscape:document-units="px"
     showgrid="true"
     inkscape:zoom="7.5893748"
     inkscape:cx="174.70791"
     inkscape:cy="135.51222"
     inkscape:window-width="1920"
     inkscape:window-height="1017"
     inkscape:window-x="-8"
     inkscape:window-y="352"
     inkscape:window-maximized="1"
     inkscape:current-layer="layer1-0"
     width="600px"
     units="px"
     inkscape:document-rotation="0"
     showguides="true"
     inkscape:guide-bbox="true"
     inkscape:snap-nodes="false"
     inkscape:snap-global="true">
    <inkscape:grid
       type="xygrid"
       id="grid837" />
    <sodipodi:guide
       position="58.208329,58.208338"
       orientation="0,-1"
       id="guide841" />
    <sodipodi:guide
       position="63.499995,60.854172"
       orientation="0,-1"
       id="guide843" />
    <sodipodi:guide
       position="66.145828,74.08334"
       orientation="1,0"
       id="guide845" />
    <sodipodi:guide
       position="68.791662,52.916671"
       orientation="1,0"
       id="guide847" />
    <sodipodi:guide
       position="2.6458331,47.625004"
       orientation="1,0"
       id="guide849" />
    <sodipodi:guide
       position="108.47917,23.8125"
       orientation="1,0"
       id="guide851" />
    <sodipodi:guide
       position="84.66666,116.41668"
       orientation="0,-1"
       id="guide853" />
    <sodipodi:guide
       position="142.875,2.6458333"
       orientation="0,-1"
       id="guide855" />
    <sodipodi:guide
       position="105.83333,23.8125"
       orientation="1,0"
       id="guide1113" />
    <sodipodi:guide
       position="87.312493,5.2916671"
       orientation="0,-1"
       id="guide1115" />
  </sodipodi:namedview>
  <defs
     id="defs2" />
  <g
     inkscape:label="Layer 1"
     inkscape:groupmode="layer"
     id="layer1">
    <g
       aria-label="Yachting"
       id="text858-8"
       style="font-style:normal;font-weight:normal;font-size:19.7556px;line-height:1.25;font-family:sans-serif;fill:#01b1da;fill-opacity:1;stroke:none;stroke-width:0.264583">
      <path
         d="m 25.142422,37.464504 h -0.651934 v -5.92668 l -4.504277,-8.89002 h 0.711201 l 4.168432,8.198574 4.089409,-8.198574 h 0.592668 l -4.405499,8.89002 z"
         style="font-style:normal;font-variant:normal;font-weight:normal;font-stretch:normal;font-size:19.7556px;font-family:'Poiret One';-inkscape-font-specification:'Poiret One';fill:#01b1da;fill-opacity:1;stroke-width:0.264583"
         id="path940" />
      <path
         d="m 38.418115,28.574484 v 8.89002 h -0.632179 v -2.212627 q -0.553157,1.126069 -1.659471,1.778004 -1.106313,0.651935 -2.370672,0.651935 -1.936049,0 -3.318941,-1.363137 -1.382892,-1.382892 -1.382892,-3.299185 0,-1.916293 1.382892,-3.279429 1.382892,-1.382892 3.318941,-1.382892 1.264359,0 2.410183,0.67169 1.165581,0.67169 1.61996,1.778004 V 28.574484 Z M 29.68614,33.03925 q 0,1.65947 1.205091,2.884317 1.224847,1.205092 2.884318,1.205092 1.679226,0 2.864562,-1.205092 1.185336,-1.224847 1.185336,-2.884317 0,-1.679226 -1.205092,-2.904073 -1.185336,-1.224848 -2.844806,-1.224848 -1.659471,0 -2.884318,1.244603 -1.205091,1.224847 -1.205091,2.884318 z"
         style="font-style:normal;font-variant:normal;font-weight:normal;font-stretch:normal;font-size:19.7556px;font-family:'Poiret One';-inkscape-font-specification:'Poiret One';fill:#01b1da;fill-opacity:1;stroke-width:0.264583"
         id="path942" />
      <path
         d="m 45.095475,37.721327 h -0.1778 q -1.896538,0 -3.259674,-1.402648 -1.363137,-1.402647 -1.363137,-3.279429 0,-1.896538 1.382892,-3.259674 1.382892,-1.382892 3.397964,-1.382892 2.015071,0 3.437474,1.521181 v 1.007536 q -0.612424,-0.908758 -1.560692,-1.442159 -0.928514,-0.533401 -1.955805,-0.533401 -1.639715,0 -2.864562,1.224847 -1.205091,1.205091 -1.205091,2.884317 0,1.679226 1.205091,2.904074 1.224847,1.205091 2.864562,1.205091 1.027291,0 1.955805,-0.533401 0.948268,-0.533401 1.560692,-1.461914 v 1.027291 q -1.382892,1.521181 -3.417719,1.521181 z"
         style="font-style:normal;font-variant:normal;font-weight:normal;font-stretch:normal;font-size:19.7556px;font-family:'Poiret One';-inkscape-font-specification:'Poiret One';fill:#01b1da;fill-opacity:1;stroke-width:0.264583"
         id="path944" />
      <path
         d="M 50.824595,37.464504 H 50.192416 V 22.66756 h 0.632179 v 7.625661 q 0.98778,-1.936048 3.417719,-1.936048 1.65947,0 2.78554,1.145824 1.145824,1.145825 1.145824,2.78554 v 5.175967 h -0.632179 v -5.175967 q 0,-1.382892 -0.968024,-2.370672 -0.968025,-1.007536 -2.331161,-1.007536 -1.363136,0 -2.390428,1.007536 -1.027291,1.007536 -1.027291,2.370672 z"
         style="font-style:normal;font-variant:normal;font-weight:normal;font-stretch:normal;font-size:19.7556px;font-family:'Poiret One';-inkscape-font-specification:'Poiret One';fill:#01b1da;fill-opacity:1;stroke-width:0.264583"
         id="path946" />
      <path
         d="m 63.527445,37.029881 v 0.553157 q -1.402648,0 -2.390428,-0.928513 -0.98778,-0.948269 -0.98778,-2.410184 v -9.24562 h 0.632179 v 3.595519 h 2.726273 v 0.553157 h -2.726273 v 5.096944 q 0,1.205092 0.790224,1.995316 0.80998,0.790224 1.955805,0.790224 z"
         style="font-style:normal;font-variant:normal;font-weight:normal;font-stretch:normal;font-size:19.7556px;font-family:'Poiret One';-inkscape-font-specification:'Poiret One';fill:#01b1da;fill-opacity:1;stroke-width:0.264583"
         id="path948" />
      <path
         d="m 65.996881,28.59424 v 8.870264 h -0.63218 V 28.59424 Z m -0.31609,-2.173116 q -0.572912,0 -0.572912,-0.533401 0,-0.533402 0.572912,-0.533402 0.572912,0 0.572912,0.533402 0,0.533401 -0.572912,0.533401 z"
         style="font-style:normal;font-variant:normal;font-weight:normal;font-stretch:normal;font-size:19.7556px;font-family:'Poiret One';-inkscape-font-specification:'Poiret One';fill:#01b1da;fill-opacity:1;stroke-width:0.264583"
         id="path950" />
      <path
         d="m 69.256545,37.464504 h -0.632179 v -8.89002 h 0.632179 v 1.79776 q 1.007535,-2.015071 3.437474,-2.015071 1.659471,0 2.78554,1.145824 1.126069,1.145825 1.126069,2.78554 v 5.175967 h -0.632179 v -5.175967 q 0,-1.363136 -0.968025,-2.370672 -0.948268,-1.007536 -2.311405,-1.007536 -1.363136,0 -2.410183,1.007536 -1.027291,1.007536 -1.027291,2.370672 z"
         style="font-style:normal;font-variant:normal;font-weight:normal;font-stretch:normal;font-size:19.7556px;font-family:'Poiret One';-inkscape-font-specification:'Poiret One';fill:#01b1da;fill-opacity:1;stroke-width:0.264583"
         id="path952" />
      <path
         d="m 87.234105,28.574484 h 0.632179 v 8.060285 q 0,2.29165 -1.264359,3.615275 -1.264358,1.323625 -3.31894,1.323625 -1.12607,0 -2.192872,-0.513646 -1.066802,-0.513645 -1.65947,-1.34338 v -0.908758 q 0.513645,0.948269 1.600203,1.580448 1.106314,0.632179 2.252139,0.632179 1.738492,0 2.844806,-1.185336 1.106314,-1.16558 1.106314,-3.200407 v -1.323625 q -0.533402,1.086558 -1.679226,1.738493 -1.145825,0.651934 -2.370672,0.651934 -1.936049,0 -3.318941,-1.363136 -1.382892,-1.382892 -1.382892,-3.299185 0,-1.916293 1.382892,-3.27943 1.382892,-1.382892 3.318941,-1.382892 1.284114,0 2.390427,0.651935 1.126069,0.632179 1.659471,1.758248 z m -8.119552,4.464766 q 0,1.679226 1.205092,2.904073 1.224847,1.205092 2.884317,1.205092 1.679226,0 2.864562,-1.205092 1.185336,-1.224847 1.185336,-2.904073 0,-1.679226 -1.185336,-2.884318 -1.185336,-1.224847 -2.864562,-1.224847 -1.65947,0 -2.884317,1.224847 -1.205092,1.205092 -1.205092,2.884318 z"
         style="font-style:normal;font-variant:normal;font-weight:normal;font-stretch:normal;font-size:19.7556px;font-family:'Poiret One';-inkscape-font-specification:'Poiret One';fill:#01b1da;fill-opacity:1;stroke-width:0.264583"
         id="path954" />
    </g>
    <g
       aria-label="Athanasius"
       id="text995"
       style="font-style:normal;font-weight:normal;font-size:22.5778px;line-height:1.25;font-family:sans-serif;opacity:1;fill:#ffffff;fill-opacity:1;stroke:none;stroke-width:0.264583">
      <path
         d="M 10.886557,4.0984052 19.353232,21.438156 H 18.563009 L 15.356961,14.980905 H 6.3032632 L 3.1423711,21.438156 H 2.4424593 Z m -0.06773,1.5578682 -4.2220484,8.6698756 h 8.4892534 z"
         style="font-style:normal;font-variant:normal;font-weight:normal;font-stretch:normal;font-size:22.5778px;font-family:'Poiret One';-inkscape-font-specification:'Poiret One';fill:#ffffff;fill-opacity:1;stroke-width:0.264583"
         id="path919" />
      <path
         d="m 25.020217,20.941445 v 0.632178 q -1.603024,0 -2.731914,-1.061157 -1.12889,-1.083734 -1.12889,-2.754491 V 7.1915639 h 0.72249 v 4.1091601 h 3.115736 v 0.632178 h -3.115736 v 5.825073 q 0,1.377245 0.903112,2.280357 0.92569,0.903113 2.235202,0.903113 z"
         style="font-style:normal;font-variant:normal;font-weight:normal;font-stretch:normal;font-size:22.5778px;font-family:'Poiret One';-inkscape-font-specification:'Poiret One';fill:#ffffff;fill-opacity:1;stroke-width:0.264583"
         id="path921" />
      <path
         d="m 27.548914,21.438156 h -0.72249 V 4.5273834 h 0.72249 v 8.7150306 q 1.12889,-2.212624 3.905959,-2.212624 1.896535,0 3.18347,1.309512 1.309513,1.309513 1.309513,3.18347 v 5.915384 h -0.72249 v -5.915384 q 0,-1.580446 -1.106312,-2.709336 -1.106313,-1.151468 -2.664181,-1.151468 -1.557868,0 -2.731914,1.151468 -1.174045,1.151468 -1.174045,2.709336 z"
         style="font-style:normal;font-variant:normal;font-weight:normal;font-stretch:normal;font-size:22.5778px;font-family:'Poiret One';-inkscape-font-specification:'Poiret One';fill:#ffffff;fill-opacity:1;stroke-width:0.264583"
         id="path923" />
      <path
         d="m 48.568845,11.278146 v 10.16001 h -0.72249 v -2.528714 q -0.632178,1.286935 -1.896535,2.032003 -1.264357,0.745067 -2.709336,0.745067 -2.212625,0 -3.793071,-1.557868 -1.580446,-1.580446 -1.580446,-3.770493 0,-2.190047 1.580446,-3.747915 1.580446,-1.580446 3.793071,-1.580446 1.444979,0 2.754491,0.767645 1.332091,0.767645 1.85138,2.032002 v -2.551291 z m -9.979388,5.102583 q 0,1.896535 1.377246,3.296359 1.399823,1.377246 3.296358,1.377246 1.919114,0 3.273782,-1.377246 1.354668,-1.399824 1.354668,-3.296359 0,-1.919113 -1.377246,-3.318937 -1.354668,-1.399824 -3.251204,-1.399824 -1.896535,0 -3.296358,1.422402 -1.377246,1.399823 -1.377246,3.296359 z"
         style="font-style:normal;font-variant:normal;font-weight:normal;font-stretch:normal;font-size:22.5778px;font-family:'Poiret One';-inkscape-font-specification:'Poiret One';fill:#ffffff;fill-opacity:1;stroke-width:0.264583"
         id="path925" />
      <path
         d="m 52.000631,21.438156 h -0.72249 v -10.16001 h 0.72249 v 2.05458 q 1.151468,-2.302936 3.928537,-2.302936 1.896536,0 3.18347,1.309512 1.286935,1.309513 1.286935,3.18347 v 5.915384 h -0.72249 v -5.915384 q 0,-1.557868 -1.106312,-2.709336 -1.083734,-1.151468 -2.641603,-1.151468 -1.557868,0 -2.754491,1.151468 -1.174046,1.151468 -1.174046,2.709336 z"
         style="font-style:normal;font-variant:normal;font-weight:normal;font-stretch:normal;font-size:22.5778px;font-family:'Poiret One';-inkscape-font-specification:'Poiret One';fill:#ffffff;fill-opacity:1;stroke-width:0.264583"
         id="path927" />
      <path
         d="m 73.246304,11.278146 v 10.16001 h -0.722489 v -2.528714 q -0.632179,1.286935 -1.896536,2.032003 -1.264356,0.745067 -2.709336,0.745067 -2.212624,0 -3.79307,-1.557868 -1.580446,-1.580446 -1.580446,-3.770493 0,-2.190047 1.580446,-3.747915 1.580446,-1.580446 3.79307,-1.580446 1.44498,0 2.754492,0.767645 1.33209,0.767645 1.85138,2.032002 v -2.551291 z m -9.979388,5.102583 q 0,1.896535 1.377246,3.296359 1.399824,1.377246 3.296359,1.377246 1.919113,0 3.273781,-1.377246 1.354668,-1.399824 1.354668,-3.296359 0,-1.919113 -1.377245,-3.318937 -1.354669,-1.399824 -3.251204,-1.399824 -1.896535,0 -3.296359,1.422402 -1.377246,1.399823 -1.377246,3.296359 z"
         style="font-style:normal;font-variant:normal;font-weight:normal;font-stretch:normal;font-size:22.5778px;font-family:'Poiret One';-inkscape-font-specification:'Poiret One';fill:#ffffff;fill-opacity:1;stroke-width:0.264583"
         id="path929" />
      <path
         d="m 78.168226,11.639391 q -0.587023,0 -1.038579,0.383822 -0.451556,0.383823 -0.451556,0.948268 0,0.564445 0.496711,1.038579 0.51929,0.474133 1.219202,0.880534 0.722489,0.383823 1.444979,0.835379 0.722489,0.451556 1.219201,1.151467 0.51929,0.699912 0.51929,1.603024 0,1.33209 -1.016002,2.280358 -0.993423,0.92569 -2.415824,0.92569 -0.903112,0 -1.693335,-0.383823 -0.767645,-0.4064 -1.12889,-1.061156 v -1.083735 q 0.857956,1.896536 2.754491,1.896536 1.174046,0 1.964269,-0.72249 0.812801,-0.72249 0.812801,-1.603024 0,-0.903112 -0.51929,-1.512713 -0.496711,-0.6096 -1.219201,-1.038578 -0.722489,-0.428979 -1.444979,-0.835379 -0.699912,-0.428978 -1.219201,-1.016001 -0.496712,-0.609601 -0.496712,-1.399824 0,-0.812801 0.632179,-1.354668 0.654756,-0.564445 1.670757,-0.564445 1.016001,0 1.73849,0.790223 v 0.92569 q -0.722489,-1.083734 -1.828801,-1.083734 z"
         style="font-style:normal;font-variant:normal;font-weight:normal;font-stretch:normal;font-size:22.5778px;font-family:'Poiret One';-inkscape-font-specification:'Poiret One';fill:#ffffff;fill-opacity:1;stroke-width:0.264583"
         id="path931" />
      <path
         d="m 84.738364,11.300724 v 10.137432 h -0.72249 V 11.300724 Z M 84.377119,8.8171655 q -0.654756,0 -0.654756,-0.6096006 0,-0.6096006 0.654756,-0.6096006 0.654756,0 0.654756,0.6096006 0,0.6096006 -0.654756,0.6096006 z"
         style="font-style:normal;font-variant:normal;font-weight:normal;font-stretch:normal;font-size:22.5778px;font-family:'Poiret One';-inkscape-font-specification:'Poiret One';fill:#ffffff;fill-opacity:1;stroke-width:0.264583"
         id="path933" />
      <path
         d="m 95.914364,11.278146 h 0.722489 v 10.16001 h -0.722489 v -2.05458 q -1.151468,2.302936 -3.928538,2.302936 -1.896535,0 -3.183469,-1.309513 -1.286935,-1.309512 -1.286935,-3.183469 v -5.915384 h 0.722489 v 5.915384 q 0,1.557868 1.083735,2.709336 1.106312,1.151468 2.66418,1.151468 1.557869,0 2.731914,-1.151468 1.196624,-1.151468 1.196624,-2.709336 z"
         style="font-style:normal;font-variant:normal;font-weight:normal;font-stretch:normal;font-size:22.5778px;font-family:'Poiret One';-inkscape-font-specification:'Poiret One';fill:#ffffff;fill-opacity:1;stroke-width:0.264583"
         id="path935" />
      <path
         d="m 101.33303,11.639391 q -0.58702,0 -1.03858,0.383822 -0.451557,0.383823 -0.451557,0.948268 0,0.564445 0.496707,1.038579 0.51929,0.474133 1.21921,0.880534 0.72249,0.383823 1.44498,0.835379 0.72249,0.451556 1.2192,1.151467 0.51929,0.699912 0.51929,1.603024 0,1.33209 -1.016,2.280358 -0.99343,0.92569 -2.41583,0.92569 -0.90311,0 -1.693335,-0.383823 -0.767645,-0.4064 -1.12889,-1.061156 v -1.083735 q 0.857957,1.896536 2.754495,1.896536 1.17404,0 1.96427,-0.72249 0.8128,-0.72249 0.8128,-1.603024 0,-0.903112 -0.51929,-1.512713 -0.49671,-0.6096 -1.2192,-1.038578 -0.72249,-0.428979 -1.44498,-0.835379 -0.69992,-0.428978 -1.219205,-1.016001 -0.496711,-0.609601 -0.496711,-1.399824 0,-0.812801 0.632178,-1.354668 0.654758,-0.564445 1.670758,-0.564445 1.016,0 1.73849,0.790223 v 0.92569 q -0.72249,-1.083734 -1.8288,-1.083734 z"
         style="font-style:normal;font-variant:normal;font-weight:normal;font-stretch:normal;font-size:22.5778px;font-family:'Poiret One';-inkscape-font-specification:'Poiret One';fill:#ffffff;fill-opacity:1;stroke-width:0.264583"
         id="path937" />
    </g>
    <g
       aria-label="Yachting"
       id="text858"
       style="font-style:normal;font-weight:normal;font-size:19.7556px;line-height:1.25;font-family:sans-serif;opacity:1;fill:#01b1da;fill-opacity:1;stroke:none;stroke-width:0.264583">
      <path
         d="m 24.80853,37.058159 h -0.651935 v -5.92668 l -4.504277,-8.89002 h 0.711202 l 4.168431,8.198574 4.089409,-8.198574 h 0.592668 l -4.405498,8.89002 z"
         style="font-style:normal;font-variant:normal;font-weight:normal;font-stretch:normal;font-size:19.7556px;font-family:'Poiret One';-inkscape-font-specification:'Poiret One';fill:#01b1da;fill-opacity:1;stroke-width:0.264583"
         id="path902" />
      <path
         d="m 38.084222,28.168139 v 8.89002 h -0.632179 v -2.212627 q -0.553157,1.126069 -1.659471,1.778004 -1.106313,0.651934 -2.370672,0.651934 -1.936048,0 -3.31894,-1.363136 -1.382892,-1.382892 -1.382892,-3.299185 0,-1.916293 1.382892,-3.27943 1.382892,-1.382892 3.31894,-1.382892 1.264359,0 2.410184,0.671691 1.16558,0.67169 1.619959,1.778004 v -2.232383 z m -8.731975,4.464765 q 0,1.659471 1.205091,2.884318 1.224848,1.205092 2.884318,1.205092 1.679226,0 2.864562,-1.205092 1.185336,-1.224847 1.185336,-2.884318 0,-1.679226 -1.205092,-2.904073 -1.185336,-1.224847 -2.844806,-1.224847 -1.65947,0 -2.884318,1.244603 -1.205091,1.224847 -1.205091,2.884317 z"
         style="font-style:normal;font-variant:normal;font-weight:normal;font-stretch:normal;font-size:19.7556px;font-family:'Poiret One';-inkscape-font-specification:'Poiret One';fill:#01b1da;fill-opacity:1;stroke-width:0.264583"
         id="path904" />
      <path
         d="m 44.761582,37.314982 h -0.1778 q -1.896538,0 -3.259674,-1.402648 -1.363136,-1.402648 -1.363136,-3.27943 0,-1.896537 1.382892,-3.259674 1.382892,-1.382892 3.397963,-1.382892 2.015071,0 3.437474,1.521182 v 1.007535 q -0.612423,-0.908757 -1.560692,-1.442159 -0.928513,-0.533401 -1.955805,-0.533401 -1.639714,0 -2.864562,1.224847 -1.205091,1.205092 -1.205091,2.884318 0,1.679226 1.205091,2.904073 1.224848,1.205092 2.864562,1.205092 1.027292,0 1.955805,-0.533401 0.948269,-0.533402 1.560692,-1.461915 V 35.7938 q -1.382892,1.521182 -3.417719,1.521182 z"
         style="font-style:normal;font-variant:normal;font-weight:normal;font-stretch:normal;font-size:19.7556px;font-family:'Poiret One';-inkscape-font-specification:'Poiret One';fill:#01b1da;fill-opacity:1;stroke-width:0.264583"
         id="path906" />
      <path
         d="M 50.490702,37.058159 H 49.858523 V 22.261214 h 0.632179 v 7.625662 q 0.98778,-1.936049 3.417719,-1.936049 1.659471,0 2.78554,1.145825 1.145825,1.145825 1.145825,2.78554 v 5.175967 h -0.63218 v -5.175967 q 0,-1.382892 -0.968024,-2.370672 -0.968024,-1.007536 -2.331161,-1.007536 -1.363136,0 -2.390427,1.007536 -1.027292,1.007535 -1.027292,2.370672 z"
         style="font-style:normal;font-variant:normal;font-weight:normal;font-stretch:normal;font-size:19.7556px;font-family:'Poiret One';-inkscape-font-specification:'Poiret One';fill:#01b1da;fill-opacity:1;stroke-width:0.264583"
         id="path908" />
      <path
         d="m 63.193552,36.623536 v 0.553156 q -1.402648,0 -2.390428,-0.928513 -0.98778,-0.948269 -0.98778,-2.410183 v -9.245621 h 0.632179 v 3.595519 h 2.726273 v 0.553157 h -2.726273 v 5.096945 q 0,1.205092 0.790224,1.995316 0.80998,0.790224 1.955805,0.790224 z"
         style="font-style:normal;font-variant:normal;font-weight:normal;font-stretch:normal;font-size:19.7556px;font-family:'Poiret One';-inkscape-font-specification:'Poiret One';fill:#01b1da;fill-opacity:1;stroke-width:0.264583"
         id="path910" />
      <path
         d="m 65.662988,28.187894 v 8.870265 h -0.632179 v -8.870265 z m -0.31609,-2.173116 q -0.572912,0 -0.572912,-0.533401 0,-0.533401 0.572912,-0.533401 0.572913,0 0.572913,0.533401 0,0.533401 -0.572913,0.533401 z"
         style="font-style:normal;font-variant:normal;font-weight:normal;font-stretch:normal;font-size:19.7556px;font-family:'Poiret One';-inkscape-font-specification:'Poiret One';fill:#01b1da;fill-opacity:1;stroke-width:0.264583"
         id="path912" />
      <path
         d="m 68.922652,37.058159 h -0.632179 v -8.89002 h 0.632179 v 1.797759 q 1.007536,-2.015071 3.437474,-2.015071 1.659471,0 2.78554,1.145825 1.126069,1.145825 1.126069,2.78554 v 5.175967 h -0.632179 v -5.175967 q 0,-1.363137 -0.968024,-2.370672 -0.948269,-1.007536 -2.311406,-1.007536 -1.363136,0 -2.410183,1.007536 -1.027291,1.007535 -1.027291,2.370672 z"
         style="font-style:normal;font-variant:normal;font-weight:normal;font-stretch:normal;font-size:19.7556px;font-family:'Poiret One';-inkscape-font-specification:'Poiret One';fill:#01b1da;fill-opacity:1;stroke-width:0.264583"
         id="path914" />
      <path
         d="m 86.900212,28.168139 h 0.632179 v 8.060285 q 0,2.291649 -1.264358,3.615274 -1.264359,1.323626 -3.318941,1.323626 -1.126069,0 -2.192872,-0.513646 -1.066802,-0.513646 -1.65947,-1.343381 V 38.40154 q 0.513645,0.948268 1.600203,1.580448 1.106314,0.632179 2.252139,0.632179 1.738493,0 2.844806,-1.185336 1.106314,-1.165581 1.106314,-3.200407 v -1.323626 q -0.533401,1.086558 -1.679226,1.738493 -1.145825,0.651935 -2.370672,0.651935 -1.936049,0 -3.318941,-1.363136 -1.382892,-1.382892 -1.382892,-3.299186 0,-1.916293 1.382892,-3.279429 1.382892,-1.382892 3.318941,-1.382892 1.284114,0 2.390427,0.651935 1.12607,0.632179 1.659471,1.758248 z m -8.119552,4.464765 q 0,1.679226 1.205092,2.904074 1.224847,1.205091 2.884317,1.205091 1.679226,0 2.864562,-1.205091 1.185336,-1.224848 1.185336,-2.904074 0,-1.679226 -1.185336,-2.884317 -1.185336,-1.224847 -2.864562,-1.224847 -1.65947,0 -2.884317,1.224847 -1.205092,1.205091 -1.205092,2.884317 z"
         style="font-style:normal;font-variant:normal;font-weight:normal;font-stretch:normal;font-size:19.7556px;font-family:'Poiret One';-inkscape-font-specification:'Poiret One';fill:#01b1da;fill-opacity:1;stroke-width:0.264583"
         id="path916" />
    </g>
    <g
       aria-label="Athanasius"
       id="text995-1"
       style="font-style:normal;font-weight:normal;font-size:22.5778px;line-height:1.25;font-family:sans-serif;fill:#ffffff;fill-opacity:1;stroke:none;stroke-width:0.264583">
      <path
         d="M 11.386724,4.3141835 19.853399,21.653934 H 19.063176 L 15.857129,15.196683 H 6.8034306 L 3.6425385,21.653934 H 2.9426267 Z m -0.06773,1.5578683 -4.222049,8.6698752 h 8.489253 z"
         style="font-style:normal;font-variant:normal;font-weight:normal;font-stretch:normal;font-size:22.5778px;font-family:'Poiret One';-inkscape-font-specification:'Poiret One';fill:#ffffff;fill-opacity:1;stroke-width:0.264583"
         id="path881" />
      <path
         d="m 25.520385,21.157223 v 0.632178 q -1.603024,0 -2.731914,-1.061156 -1.12889,-1.083735 -1.12889,-2.754492 V 7.4073422 h 0.722489 v 4.1091598 h 3.115737 V 12.14868 H 22.38207 v 5.825073 q 0,1.377246 0.903112,2.280358 0.92569,0.903112 2.235203,0.903112 z"
         style="font-style:normal;font-variant:normal;font-weight:normal;font-stretch:normal;font-size:22.5778px;font-family:'Poiret One';-inkscape-font-specification:'Poiret One';fill:#ffffff;fill-opacity:1;stroke-width:0.264583"
         id="path883" />
      <path
         d="m 28.049081,21.653934 h -0.72249 V 4.7431617 h 0.72249 v 8.7150313 q 1.12889,-2.212625 3.90596,-2.212625 1.896535,0 3.183469,1.309513 1.309513,1.309512 1.309513,3.18347 v 5.915383 h -0.72249 v -5.915383 q 0,-1.580446 -1.106312,-2.709336 -1.106312,-1.151468 -2.66418,-1.151468 -1.557869,0 -2.731914,1.151468 -1.174046,1.151467 -1.174046,2.709336 z"
         style="font-style:normal;font-variant:normal;font-weight:normal;font-stretch:normal;font-size:22.5778px;font-family:'Poiret One';-inkscape-font-specification:'Poiret One';fill:#ffffff;fill-opacity:1;stroke-width:0.264583"
         id="path885" />
      <path
         d="m 49.069012,11.493924 v 10.16001 h -0.72249 v -2.528713 q -0.632178,1.286934 -1.896535,2.032002 -1.264357,0.745067 -2.709336,0.745067 -2.212624,0 -3.79307,-1.557868 -1.580447,-1.580446 -1.580447,-3.770493 0,-2.190046 1.580447,-3.747915 1.580446,-1.580446 3.79307,-1.580446 1.444979,0 2.754492,0.767646 1.33209,0.767645 1.851379,2.032002 v -2.551292 z m -9.979388,5.102583 q 0,1.896535 1.377246,3.296359 1.399824,1.377246 3.296359,1.377246 1.919113,0 3.273781,-1.377246 1.354668,-1.399824 1.354668,-3.296359 0,-1.919113 -1.377246,-3.318937 -1.354668,-1.399823 -3.251203,-1.399823 -1.896535,0 -3.296359,1.422401 -1.377246,1.399824 -1.377246,3.296359 z"
         style="font-style:normal;font-variant:normal;font-weight:normal;font-stretch:normal;font-size:22.5778px;font-family:'Poiret One';-inkscape-font-specification:'Poiret One';fill:#ffffff;fill-opacity:1;stroke-width:0.264583"
         id="path887" />
      <path
         d="m 52.500798,21.653934 h -0.722489 v -10.16001 h 0.722489 v 2.05458 q 1.151468,-2.302936 3.928538,-2.302936 1.896535,0 3.18347,1.309513 1.286934,1.309512 1.286934,3.18347 v 5.915383 h -0.722489 v -5.915383 q 0,-1.557869 -1.106313,-2.709336 -1.083734,-1.151468 -2.641602,-1.151468 -1.557869,0 -2.754492,1.151468 -1.174046,1.151467 -1.174046,2.709336 z"
         style="font-style:normal;font-variant:normal;font-weight:normal;font-stretch:normal;font-size:22.5778px;font-family:'Poiret One';-inkscape-font-specification:'Poiret One';fill:#ffffff;fill-opacity:1;stroke-width:0.264583"
         id="path889" />
      <path
         d="m 73.746472,11.493924 v 10.16001 h -0.72249 v -2.528713 q -0.632178,1.286934 -1.896535,2.032002 -1.264357,0.745067 -2.709336,0.745067 -2.212625,0 -3.793071,-1.557868 -1.580446,-1.580446 -1.580446,-3.770493 0,-2.190046 1.580446,-3.747915 1.580446,-1.580446 3.793071,-1.580446 1.444979,0 2.754491,0.767646 1.332091,0.767645 1.85138,2.032002 v -2.551292 z m -9.979388,5.102583 q 0,1.896535 1.377246,3.296359 1.399823,1.377246 3.296359,1.377246 1.919113,0 3.273781,-1.377246 1.354668,-1.399824 1.354668,-3.296359 0,-1.919113 -1.377246,-3.318937 -1.354668,-1.399823 -3.251203,-1.399823 -1.896536,0 -3.296359,1.422401 -1.377246,1.399824 -1.377246,3.296359 z"
         style="font-style:normal;font-variant:normal;font-weight:normal;font-stretch:normal;font-size:22.5778px;font-family:'Poiret One';-inkscape-font-specification:'Poiret One';fill:#ffffff;fill-opacity:1;stroke-width:0.264583"
         id="path891" />
      <path
         d="m 78.668393,11.855169 q -0.587023,0 -1.038579,0.383823 -0.451556,0.383822 -0.451556,0.948267 0,0.564445 0.496712,1.038579 0.519289,0.474134 1.219201,0.880534 0.72249,0.383823 1.444979,0.835379 0.72249,0.451556 1.219201,1.151468 0.51929,0.699912 0.51929,1.603024 0,1.33209 -1.016001,2.280357 -0.993423,0.92569 -2.415825,0.92569 -0.903112,0 -1.693335,-0.383822 -0.767645,-0.406401 -1.12889,-1.061157 v -1.083734 q 0.857956,1.896535 2.754492,1.896535 1.174045,0 1.964268,-0.72249 0.812801,-0.722489 0.812801,-1.603024 0,-0.903112 -0.519289,-1.512712 -0.496712,-0.609601 -1.219201,-1.038579 -0.72249,-0.428978 -1.44498,-0.835379 -0.699911,-0.428978 -1.219201,-1.016001 -0.496712,-0.6096 -0.496712,-1.399823 0,-0.812801 0.632179,-1.354668 0.654756,-0.564445 1.670757,-0.564445 1.016001,0 1.738491,0.790223 v 0.925689 q -0.72249,-1.083734 -1.828802,-1.083734 z"
         style="font-style:normal;font-variant:normal;font-weight:normal;font-stretch:normal;font-size:22.5778px;font-family:'Poiret One';-inkscape-font-specification:'Poiret One';fill:#ffffff;fill-opacity:1;stroke-width:0.264583"
         id="path893" />
      <path
         d="M 85.238531,11.516502 V 21.653934 H 84.516042 V 11.516502 Z M 84.877286,9.0329439 q -0.654756,0 -0.654756,-0.6096007 0,-0.6096006 0.654756,-0.6096006 0.654757,0 0.654757,0.6096006 0,0.6096007 -0.654757,0.6096007 z"
         style="font-style:normal;font-variant:normal;font-weight:normal;font-stretch:normal;font-size:22.5778px;font-family:'Poiret One';-inkscape-font-specification:'Poiret One';fill:#ffffff;fill-opacity:1;stroke-width:0.264583"
         id="path895" />
      <path
         d="m 96.414531,11.493924 h 0.72249 v 10.16001 h -0.72249 v -2.054579 q -1.151468,2.302935 -3.928537,2.302935 -1.896535,0 -3.18347,-1.309512 -1.286935,-1.309513 -1.286935,-3.18347 v -5.915384 h 0.72249 v 5.915384 q 0,1.557868 1.083734,2.709336 1.106313,1.151468 2.664181,1.151468 1.557868,0 2.731914,-1.151468 1.196623,-1.151468 1.196623,-2.709336 z"
         style="font-style:normal;font-variant:normal;font-weight:normal;font-stretch:normal;font-size:22.5778px;font-family:'Poiret One';-inkscape-font-specification:'Poiret One';fill:#ffffff;fill-opacity:1;stroke-width:0.264583"
         id="path897" />
      <path
         d="m 101.8332,11.855169 q -0.58703,0 -1.03858,0.383823 -0.45156,0.383822 -0.45156,0.948267 0,0.564445 0.49671,1.038579 0.51929,0.474134 1.2192,0.880534 0.72249,0.383823 1.44498,0.835379 0.72249,0.451556 1.2192,1.151468 0.51929,0.699912 0.51929,1.603024 0,1.33209 -1.016,2.280357 -0.99342,0.92569 -2.41582,0.92569 -0.90311,0 -1.69334,-0.383822 -0.767643,-0.406401 -1.128887,-1.061157 v -1.083734 q 0.857956,1.896535 2.754487,1.896535 1.17405,0 1.96427,-0.72249 0.8128,-0.722489 0.8128,-1.603024 0,-0.903112 -0.51929,-1.512712 -0.49671,-0.609601 -1.2192,-1.038579 -0.72249,-0.428978 -1.44498,-0.835379 -0.69991,-0.428978 -1.2192,-1.016001 -0.496709,-0.6096 -0.496709,-1.399823 0,-0.812801 0.632179,-1.354668 0.65476,-0.564445 1.67076,-0.564445 1.016,0 1.73849,0.790223 v 0.925689 q -0.72249,-1.083734 -1.8288,-1.083734 z"
         style="font-style:normal;font-variant:normal;font-weight:normal;font-stretch:normal;font-size:22.5778px;font-family:'Poiret One';-inkscape-font-specification:'Poiret One';fill:#ffffff;fill-opacity:1;stroke-width:0.264583"
         id="path899" />
    </g>
    <g
       inkscape:label="Layer 1"
       id="layer1-0"
       transform="matrix(0.28942027,0,0,0.28942027,28.627962,27.922478)"
       style="fill:#01b1da;fill-opacity:1">
      <path
         id="path2977"
         style="opacity:0.996;fill:#01b1da;fill-opacity:1;stroke:none;stroke-width:2.10753"
         d="m 17.991668,16.933334 a 1.0583334,1.0583334 0 0 1 -1.058334,1.058334 1.0583334,1.0583334 0 0 1 -1.058333,-1.058334 1.0583334,1.0583334 0 0 1 1.058333,-1.058333 1.0583334,1.0583334 0 0 1 1.058334,1.058333 z" />
      <path
         id="path2977-7"
         style="opacity:0.996;fill:#000000;fill-opacity:1;stroke:#01b1da;stroke-width:1.23243;stroke-miterlimit:4;stroke-dasharray:none;stroke-opacity:1"
         d="m 19.227535,16.933332 a 2.294204,2.294205 0 0 1 -2.294204,2.294205 2.294204,2.294205 0 0 1 -2.294204,-2.294205 2.294204,2.294205 0 0 1 2.294204,-2.294205 2.294204,2.294205 0 0 1 2.294204,2.294205 z" />
      <path
         id="path2999"
         style="fill:#ffffff;fill-opacity:1;stroke:none;stroke-width:0.999999px;stroke-linecap:butt;stroke-linejoin:miter;stroke-opacity:1"
         d="M 101.86719,52.927734 C 93.573738,52.74706 82.115492,70.067951 73.232422,73.269531 c -0.05613,0.02023 -0.118825,0.03687 -0.175781,0.05664 A 13,12.999999 0 0 1 64,77 13,12.999999 0 0 1 58.419922,75.740234 C 60.477555,79.384786 73.534497,101.67444 85,101 c 17,-1 32.46167,-28.874902 22.0332,-44.761719 -1.50617,-2.294519 -3.25214,-3.268853 -5.16601,-3.310547 z"
         transform="scale(0.26458334)" />
      <path
         id="path2999-5"
         style="fill:#ffffff;fill-opacity:1;stroke:none;stroke-width:0.264583px;stroke-linecap:butt;stroke-linejoin:miter;stroke-opacity:1"
         d="m 14.531308,27.035036 c 1.156571,-1.865374 -1.248959,-6.805678 -0.783735,-9.260282 0.0029,-0.01554 0.0076,-0.03206 0.01076,-0.04767 a 3.4395832,3.4395834 30.551887 0 1 0.380963,-2.557668 3.4395832,3.4395834 30.551887 0 1 1.037517,-1.101997 c -1.107151,-0.02134 -7.9419324,-0.04409 -9.3302862,2.659046 -2.0585225,4.00796 2.2133219,11.279885 7.2357012,11.040407 0.725376,-0.03459 1.1822,-0.301368 1.449101,-0.731838 z" />
      <path
         id="path2999-5-8"
         style="fill:#ffffff;fill-opacity:1;stroke:none;stroke-width:0.264583px;stroke-linecap:butt;stroke-linejoin:miter;stroke-opacity:1"
         d="m 9.6937316,9.4711555 c 0.9666064,1.9705205 6.4302394,2.5552265 8.2632354,4.2527675 0.01161,0.01078 0.02317,0.02341 0.0347,0.03441 a 3.4395834,3.4395832 62.622654 0 1 1.965069,1.680862 3.4395834,3.4395832 62.622654 0 1 0.382939,1.464309 C 20.945609,15.976635 24.593932,10.196972 23.040484,7.5852184 20.737173,3.712749 12.30679,3.4715332 9.8430046,7.8546168 9.4871626,8.4876609 9.4706736,9.0164215 9.6937376,9.4711565 Z" />
    </g>
    <g
       inkscape:label="Layer 1"
       id="layer1-0-2"
       transform="matrix(0.28942027,0,0,0.28942027,78.05905,27.988499)"
       style="fill:#000000;fill-opacity:1">
      <path
         id="path2977-5"
         style="opacity:0.996;fill:#000000;fill-opacity:1;stroke:none;stroke-width:2.10753"
         d="m 17.991668,16.933334 a 1.0583334,1.0583334 0 0 1 -1.058334,1.058334 1.0583334,1.0583334 0 0 1 -1.058333,-1.058334 1.0583334,1.0583334 0 0 1 1.058333,-1.058333 1.0583334,1.0583334 0 0 1 1.058334,1.058333 z" />
      <path
         id="path2977-7-5"
         style="opacity:0.996;fill:#01b1da;fill-opacity:1;stroke:#000000;stroke-width:1.23243;stroke-miterlimit:4;stroke-dasharray:none;stroke-opacity:1"
         d="m 19.227535,16.933332 a 2.294204,2.294205 0 0 1 -2.294204,2.294205 2.294204,2.294205 0 0 1 -2.294204,-2.294205 2.294204,2.294205 0 0 1 2.294204,-2.294205 2.294204,2.294205 0 0 1 2.294204,2.294205 z" />
      <path
         id="path2999-57"
         style="fill:#ffffff;fill-opacity:1;stroke:none;stroke-width:0.999999px;stroke-linecap:butt;stroke-linejoin:miter;stroke-opacity:1"
         d="M 101.86719,52.927734 C 93.573738,52.74706 82.115492,70.067951 73.232422,73.269531 c -0.05613,0.02023 -0.118825,0.03687 -0.175781,0.05664 A 13,12.999999 0 0 1 64,77 13,12.999999 0 0 1 58.419922,75.740234 C 60.477555,79.384786 73.534497,101.67444 85,101 c 17,-1 32.46167,-28.874902 22.0332,-44.761719 -1.50617,-2.294519 -3.25214,-3.268853 -5.16601,-3.310547 z"
         transform="scale(0.26458334)" />
      <path
         id="path2999-5-6"
         style="fill:#ffffff;fill-opacity:1;stroke:none;stroke-width:0.264583px;stroke-linecap:butt;stroke-linejoin:miter;stroke-opacity:1"
         d="m 14.531308,27.035036 c 1.156571,-1.865374 -1.248959,-6.805678 -0.783735,-9.260282 0.0029,-0.01554 0.0076,-0.03206 0.01076,-0.04767 a 3.4395832,3.4395834 30.551887 0 1 0.380963,-2.557668 3.4395832,3.4395834 30.551887 0 1 1.037517,-1.101997 c -1.107151,-0.02134 -7.9419324,-0.04409 -9.3302862,2.659046 -2.0585225,4.00796 2.2133219,11.279885 7.2357012,11.040407 0.725376,-0.03459 1.1822,-0.301368 1.449101,-0.731838 z" />
      <path
         id="path2999-5-8-9"
         style="fill:#ffffff;fill-opacity:1;stroke:none;stroke-width:0.264583px;stroke-linecap:butt;stroke-linejoin:miter;stroke-opacity:1"
         d="m 9.6937316,9.4711555 c 0.9666064,1.9705205 6.4302394,2.5552265 8.2632354,4.2527675 0.01161,0.01078 0.02317,0.02341 0.0347,0.03441 a 3.4395834,3.4395832 62.622654 0 1 1.965069,1.680862 3.4395834,3.4395832 62.622654 0 1 0.382939,1.464309 C 20.945609,15.976635 24.593932,10.196972 23.040484,7.5852184 20.737173,3.712749 12.30679,3.4715332 9.8430046,7.8546168 9.4871626,8.4876609 9.4706736,9.0164215 9.6937376,9.4711565 Z" />
    </g>
    <g
       inkscape:label="Layer 1"
       id="layer1-0-2-7"
       transform="matrix(0.32682329,0,0,0.32682329,37.818037,10.960655)"
       style="fill:#01b1da;fill-opacity:1">
      <path
         id="path2977-5-1"
         style="opacity:0.996;fill:#01b1da;fill-opacity:1;stroke:none;stroke-width:2.10753"
         d="m 17.991668,16.933334 a 1.0583334,1.0583334 0 0 1 -1.058334,1.058334 1.0583334,1.0583334 0 0 1 -1.058333,-1.058334 1.0583334,1.0583334 0 0 1 1.058333,-1.058333 1.0583334,1.0583334 0 0 1 1.058334,1.058333 z" />
      <path
         id="path2977-7-5-4"
         style="opacity:0.996;fill:#01b1da;fill-opacity:1;stroke:#000000;stroke-width:1.23243;stroke-miterlimit:4;stroke-dasharray:none;stroke-opacity:1"
         d="m 19.227535,16.933332 a 2.294204,2.294205 0 0 1 -2.294204,2.294205 2.294204,2.294205 0 0 1 -2.294204,-2.294205 2.294204,2.294205 0 0 1 2.294204,-2.294205 2.294204,2.294205 0 0 1 2.294204,2.294205 z" />
      <path
         id="path2999-57-1"
         style="fill:#01b1da;fill-opacity:1;stroke:none;stroke-width:0.999999px;stroke-linecap:butt;stroke-linejoin:miter;stroke-opacity:1"
         d="M 101.86719,52.927734 C 93.573738,52.74706 82.115492,70.067951 73.232422,73.269531 c -0.05613,0.02023 -0.118825,0.03687 -0.175781,0.05664 A 13,12.999999 0 0 1 64,77 13,12.999999 0 0 1 58.419922,75.740234 C 60.477555,79.384786 73.534497,101.67444 85,101 c 17,-1 32.46167,-28.874902 22.0332,-44.761719 -1.50617,-2.294519 -3.25214,-3.268853 -5.16601,-3.310547 z"
         transform="scale(0.26458334)" />
      <path
         id="path2999-5-6-5"
         style="fill:#01b1da;fill-opacity:1;stroke:none;stroke-width:0.264583px;stroke-linecap:butt;stroke-linejoin:miter;stroke-opacity:1"
         d="m 14.531308,27.035036 c 1.156571,-1.865374 -1.248959,-6.805678 -0.783735,-9.260282 0.0029,-0.01554 0.0076,-0.03206 0.01076,-0.04767 a 3.4395832,3.4395834 30.551887 0 1 0.380963,-2.557668 3.4395832,3.4395834 30.551887 0 1 1.037517,-1.101997 c -1.107151,-0.02134 -7.9419324,-0.04409 -9.3302862,2.659046 -2.0585225,4.00796 2.2133219,11.279885 7.2357012,11.040407 0.725376,-0.03459 1.1822,-0.301368 1.449101,-0.731838 z" />
      <path
         id="path2999-5-8-9-4"
         style="fill:#01b1da;fill-opacity:1;stroke:none;stroke-width:0.264583px;stroke-linecap:butt;stroke-linejoin:miter;stroke-opacity:1"
         d="m 9.6937316,9.4711555 c 0.9666064,1.9705205 6.4302394,2.5552265 8.2632354,4.2527675 0.01161,0.01078 0.02317,0.02341 0.0347,0.03441 a 3.4395834,3.4395832 62.622654 0 1 1.965069,1.680862 3.4395834,3.4395832 62.622654 0 1 0.382939,1.464309 C 20.945609,15.976635 24.593932,10.196972 23.040484,7.5852184 20.737173,3.712749 12.30679,3.4715332 9.8430046,7.8546168 9.4871626,8.4876609 9.4706736,9.0164215 9.6937376,9.4711565 Z" />
    </g>
    <g
       inkscape:label="Layer 1"
       id="layer1-0-2-1"
       transform="matrix(0.32735023,0,0,0.32735023,62.540131,10.827573)"
       style="fill:#01b1da;fill-opacity:1">
      <path
         id="path2977-5-9"
         style="opacity:0.996;fill:#01b1da;fill-opacity:1;stroke:none;stroke-width:2.10753"
         d="m 17.991668,16.933334 a 1.0583334,1.0583334 0 0 1 -1.058334,1.058334 1.0583334,1.0583334 0 0 1 -1.058333,-1.058334 1.0583334,1.0583334 0 0 1 1.058333,-1.058333 1.0583334,1.0583334 0 0 1 1.058334,1.058333 z" />
      <path
         id="path2977-7-5-8"
         style="opacity:0.996;fill:#01b1da;fill-opacity:1;stroke:#000000;stroke-width:1.23243;stroke-miterlimit:4;stroke-dasharray:none;stroke-opacity:1"
         d="m 19.227535,16.933332 a 2.294204,2.294205 0 0 1 -2.294204,2.294205 2.294204,2.294205 0 0 1 -2.294204,-2.294205 2.294204,2.294205 0 0 1 2.294204,-2.294205 2.294204,2.294205 0 0 1 2.294204,2.294205 z" />
      <path
         id="path2999-57-16"
         style="fill:#01b1da;fill-opacity:1;stroke:none;stroke-width:0.999999px;stroke-linecap:butt;stroke-linejoin:miter;stroke-opacity:1"
         d="M 101.86719,52.927734 C 93.573738,52.74706 82.115492,70.067951 73.232422,73.269531 c -0.05613,0.02023 -0.118825,0.03687 -0.175781,0.05664 A 13,12.999999 0 0 1 64,77 13,12.999999 0 0 1 58.419922,75.740234 C 60.477555,79.384786 73.534497,101.67444 85,101 c 17,-1 32.46167,-28.874902 22.0332,-44.761719 -1.50617,-2.294519 -3.25214,-3.268853 -5.16601,-3.310547 z"
         transform="scale(0.26458334)" />
      <path
         id="path2999-5-6-1"
         style="fill:#01b1da;fill-opacity:1;stroke:none;stroke-width:0.264583px;stroke-linecap:butt;stroke-linejoin:miter;stroke-opacity:1"
         d="m 14.531308,27.035036 c 1.156571,-1.865374 -1.248959,-6.805678 -0.783735,-9.260282 0.0029,-0.01554 0.0076,-0.03206 0.01076,-0.04767 a 3.4395832,3.4395834 30.551887 0 1 0.380963,-2.557668 3.4395832,3.4395834 30.551887 0 1 1.037517,-1.101997 c -1.107151,-0.02134 -7.9419324,-0.04409 -9.3302862,2.659046 -2.0585225,4.00796 2.2133219,11.279885 7.2357012,11.040407 0.725376,-0.03459 1.1822,-0.301368 1.449101,-0.731838 z" />
      <path
         id="path2999-5-8-9-2"
         style="fill:#01b1da;fill-opacity:1;stroke:none;stroke-width:0.264583px;stroke-linecap:butt;stroke-linejoin:miter;stroke-opacity:1"
         d="m 9.6937316,9.4711555 c 0.9666064,1.9705205 6.4302394,2.5552265 8.2632354,4.2527675 0.01161,0.01078 0.02317,0.02341 0.0347,0.03441 a 3.4395834,3.4395832 62.622654 0 1 1.965069,1.680862 3.4395834,3.4395832 62.622654 0 1 0.382939,1.464309 C 20.945609,15.976635 24.593932,10.196972 23.040484,7.5852184 20.737173,3.712749 12.30679,3.4715332 9.8430046,7.8546168 9.4871626,8.4876609 9.4706736,9.0164215 9.6937376,9.4711565 Z" />
    </g>
  </g>
</svg>
