<?xml version="1.0" encoding="UTF-8" standalone="no"?>
<!-- Created with Inkscape (http://www.inkscape.org/) -->

<svg
   width="1000"
   height="540"
   viewBox="0 0 264.58333 142.875"
   version="1.1"
   id="svg5"
   inkscape:version="1.1 (c68e22c387, 2021-05-23)"
   sodipodi:docname="Zeichnung.svg"
   xmlns:inkscape="http://www.inkscape.org/namespaces/inkscape"
   xmlns:sodipodi="http://sodipodi.sourceforge.net/DTD/sodipodi-0.dtd"
   xmlns="http://www.w3.org/2000/svg"
   xmlns:svg="http://www.w3.org/2000/svg">
  <sodipodi:namedview
     id="namedview7"
     pagecolor="#ffffff"
     bordercolor="#111111"
     borderopacity="1"
     inkscape:pageshadow="0"
     inkscape:pageopacity="0"
     inkscape:pagecheckerboard="1"
     inkscape:document-units="px"
     showgrid="false"
     units="px"
     width="1000px"
     inkscape:zoom="0.94867185"
     inkscape:cx="189.2119"
     inkscape:cy="309.3799"
     inkscape:window-width="3200"
     inkscape:window-height="1721"
     inkscape:window-x="1911"
     inkscape:window-y="-9"
     inkscape:window-maximized="1"
     inkscape:current-layer="layer1">
    <inkscape:grid
       type="xygrid"
       id="grid293" />
  </sodipodi:namedview>
  <defs
     id="defs2" />
  <g
     inkscape:label="Ebene 1"
     inkscape:groupmode="layer"
     id="layer1">
    <rect
       style="fill:none;fill-rule:evenodd;stroke:#a639cb;stroke-width:0.293589;stroke-opacity:1"
       id="rect109"
       width="89.664749"
       height="89.664749"
       x="24.783163"
       y="27.284445"
       ry="16.984282" />
    <rect
       style="fill:none;fill-rule:evenodd;stroke:#711cf1;stroke-width:0.293589;stroke-opacity:1"
       id="rect109-4"
       width="89.664749"
       height="89.664749"
       x="55.387535"
       y="-43.063702"
       ry="16.984282"
       transform="rotate(45)" />
    <text
       xml:space="preserve"
       style="font-style:normal;font-weight:normal;font-size:28.0275px;line-height:1.25;font-family:sans-serif;fill:#93b5e6;fill-opacity:1;stroke:none;stroke-width:0.291953"
       x="47.335865"
       y="81.678627"
       id="text2681"><tspan
         sodipodi:role="line"
         id="tspan2679"
         style="font-style:normal;font-variant:normal;font-weight:normal;font-stretch:normal;font-size:28.0275px;font-family:'Segoe UI';-inkscape-font-specification:'Segoe UI';fill:#93b5e6;fill-opacity:1;stroke-width:0.291953"
         x="47.335865"
         y="81.678627">404</tspan></text>
    <text
       xml:space="preserve"
       style="font-style:normal;font-weight:normal;font-size:10.5833px;line-height:1.25;font-family:sans-serif;fill:#93b5e6;fill-opacity:1;stroke:none;stroke-width:0.264583"
       x="133.70915"
       y="70.144699"
       id="text14407"><tspan
         sodipodi:role="line"
         id="tspan14405"
         style="stroke-width:0.264583;fill:#93b5e6;fill-opacity:1"
         x="133.70915"
         y="70.144699">Sorry, this page</tspan><tspan
         sodipodi:role="line"
         style="stroke-width:0.264583;fill:#93b5e6;fill-opacity:1"
         x="133.70915"
         y="83.373825"
         id="tspan14409">isn't available</tspan></text>
    <path
       id="path852"
       style="fill:#c2c3d1;fill-opacity:1;stroke:none;stroke-width:0.251494"
       d="m 208.27259,7.5845503 a 1.0583333,1.0583333 0 0 0 -1.05833,1.0583333 1.0583333,1.0583333 0 0 0 1.05833,1.0583333 1.0583333,1.0583333 0 0 0 1.05833,-1.0583333 1.0583333,1.0583333 0 0 0 -1.05833,-1.0583333 z m 9.24336,0 a 1.0583333,1.0583333 0 0 0 -1.05833,1.0583333 1.0583333,1.0583333 0 0 0 1.05833,1.0583333 1.0583333,1.0583333 0 0 0 1.05834,-1.0583333 1.0583333,1.0583333 0 0 0 -1.05834,-1.0583333 z m 9.24337,0 a 1.0583333,1.0583333 0 0 0 -1.05834,1.0583333 1.0583333,1.0583333 0 0 0 1.05834,1.0583333 1.0583333,1.0583333 0 0 0 1.05833,-1.0583333 1.0583333,1.0583333 0 0 0 -1.05833,-1.0583333 z m 9.24388,0 a 1.0583333,1.0583333 0 0 0 -1.05834,1.0583333 1.0583333,1.0583333 0 0 0 1.05834,1.0583333 1.0583333,1.0583333 0 0 0 1.05833,-1.0583333 1.0583333,1.0583333 0 0 0 -1.05833,-1.0583333 z m 9.24336,0 a 1.0583333,1.0583333 0 0 0 -1.05833,1.0583333 1.0583333,1.0583333 0 0 0 1.05833,1.0583333 1.0583333,1.0583333 0 0 0 1.05833,-1.0583333 1.0583333,1.0583333 0 0 0 -1.05833,-1.0583333 z m 9.24336,0 a 1.0583333,1.0583333 0 0 0 -1.05833,1.0583333 1.0583333,1.0583333 0 0 0 1.05833,1.0583333 1.0583333,1.0583333 0 0 0 1.05834,-1.0583333 1.0583333,1.0583333 0 0 0 -1.05834,-1.0583333 z m -46.21733,9.7911357 a 1.0583333,1.0583333 0 0 0 -1.05833,1.058333 1.0583333,1.0583333 0 0 0 1.05833,1.058334 1.0583333,1.0583333 0 0 0 1.05833,-1.058334 1.0583333,1.0583333 0 0 0 -1.05833,-1.058333 z m 9.24336,0 a 1.0583333,1.0583333 0 0 0 -1.05833,1.058333 1.0583333,1.0583333 0 0 0 1.05833,1.058334 1.0583333,1.0583333 0 0 0 1.05834,-1.058334 1.0583333,1.0583333 0 0 0 -1.05834,-1.058333 z m 9.24337,0 a 1.0583333,1.0583333 0 0 0 -1.05834,1.058333 1.0583333,1.0583333 0 0 0 1.05834,1.058334 1.0583333,1.0583333 0 0 0 1.05833,-1.058334 1.0583333,1.0583333 0 0 0 -1.05833,-1.058333 z m 9.24336,0 a 1.0583333,1.0583333 0 0 0 -1.05833,1.058333 1.0583333,1.0583333 0 0 0 1.05833,1.058334 1.0583333,1.0583333 0 0 0 1.05833,-1.058334 1.0583333,1.0583333 0 0 0 -1.05833,-1.058333 z m 9.24336,0 a 1.0583333,1.0583333 0 0 0 -1.05833,1.058333 1.0583333,1.0583333 0 0 0 1.05833,1.058334 1.0583333,1.0583333 0 0 0 1.05834,-1.058334 1.0583333,1.0583333 0 0 0 -1.05834,-1.058333 z m 9.24337,0 a 1.0583333,1.0583333 0 0 0 -1.05834,1.058333 1.0583333,1.0583333 0 0 0 1.05834,1.058334 1.0583333,1.0583333 0 0 0 1.05833,-1.058334 1.0583333,1.0583333 0 0 0 -1.05833,-1.058333 z m -46.21682,8.781376 a 1.0583333,1.0583333 0 0 0 -1.05833,1.058333 1.0583333,1.0583333 0 0 0 1.05833,1.058334 1.0583333,1.0583333 0 0 0 1.05833,-1.058334 1.0583333,1.0583333 0 0 0 -1.05833,-1.058333 z m 9.24336,0 a 1.0583333,1.0583333 0 0 0 -1.05833,1.058333 1.0583333,1.0583333 0 0 0 1.05833,1.058334 1.0583333,1.0583333 0 0 0 1.05834,-1.058334 1.0583333,1.0583333 0 0 0 -1.05834,-1.058333 z m 9.24337,0 a 1.0583333,1.0583333 0 0 0 -1.05834,1.058333 1.0583333,1.0583333 0 0 0 1.05834,1.058334 1.0583333,1.0583333 0 0 0 1.05833,-1.058334 1.0583333,1.0583333 0 0 0 -1.05833,-1.058333 z m 9.24388,0 a 1.0583333,1.0583333 0 0 0 -1.05834,1.058333 1.0583333,1.0583333 0 0 0 1.05834,1.058334 1.0583333,1.0583333 0 0 0 1.05833,-1.058334 1.0583333,1.0583333 0 0 0 -1.05833,-1.058333 z m 9.24336,0 a 1.0583333,1.0583333 0 0 0 -1.05833,1.058333 1.0583333,1.0583333 0 0 0 1.05833,1.058334 1.0583333,1.0583333 0 0 0 1.05833,-1.058334 1.0583333,1.0583333 0 0 0 -1.05833,-1.058333 z m 9.24336,0 a 1.0583333,1.0583333 0 0 0 -1.05833,1.058333 1.0583333,1.0583333 0 0 0 1.05833,1.058334 1.0583333,1.0583333 0 0 0 1.05834,-1.058334 1.0583333,1.0583333 0 0 0 -1.05834,-1.058333 z m -46.21733,9.791134 a 1.0583333,1.0583333 0 0 0 -1.05833,1.058334 1.0583333,1.0583333 0 0 0 1.05833,1.058333 1.0583333,1.0583333 0 0 0 1.05833,-1.058333 1.0583333,1.0583333 0 0 0 -1.05833,-1.058334 z m 9.24336,0 a 1.0583333,1.0583333 0 0 0 -1.05833,1.058334 1.0583333,1.0583333 0 0 0 1.05833,1.058333 1.0583333,1.0583333 0 0 0 1.05834,-1.058333 1.0583333,1.0583333 0 0 0 -1.05834,-1.058334 z m 9.24337,0 a 1.0583333,1.0583333 0 0 0 -1.05834,1.058334 1.0583333,1.0583333 0 0 0 1.05834,1.058333 1.0583333,1.0583333 0 0 0 1.05833,-1.058333 1.0583333,1.0583333 0 0 0 -1.05833,-1.058334 z m 9.24336,0 a 1.0583333,1.0583333 0 0 0 -1.05833,1.058334 1.0583333,1.0583333 0 0 0 1.05833,1.058333 1.0583333,1.0583333 0 0 0 1.05833,-1.058333 1.0583333,1.0583333 0 0 0 -1.05833,-1.058334 z m 9.24336,0 a 1.0583333,1.0583333 0 0 0 -1.05833,1.058334 1.0583333,1.0583333 0 0 0 1.05833,1.058333 1.0583333,1.0583333 0 0 0 1.05834,-1.058333 1.0583333,1.0583333 0 0 0 -1.05834,-1.058334 z m 9.24337,0 a 1.0583333,1.0583333 0 0 0 -1.05834,1.058334 1.0583333,1.0583333 0 0 0 1.05834,1.058333 1.0583333,1.0583333 0 0 0 1.05833,-1.058333 1.0583333,1.0583333 0 0 0 -1.05833,-1.058334 z m -46.21682,9.205122 a 1.0583333,1.0583333 0 0 0 -1.05833,1.058333 1.0583333,1.0583333 0 0 0 1.05833,1.058333 1.0583333,1.0583333 0 0 0 1.05833,-1.058333 1.0583333,1.0583333 0 0 0 -1.05833,-1.058333 z m 9.24336,0 a 1.0583333,1.0583333 0 0 0 -1.05833,1.058333 1.0583333,1.0583333 0 0 0 1.05833,1.058333 1.0583333,1.0583333 0 0 0 1.05834,-1.058333 1.0583333,1.0583333 0 0 0 -1.05834,-1.058333 z m 9.24337,0 a 1.0583333,1.0583333 0 0 0 -1.05834,1.058333 1.0583333,1.0583333 0 0 0 1.05834,1.058333 1.0583333,1.0583333 0 0 0 1.05833,-1.058333 1.0583333,1.0583333 0 0 0 -1.05833,-1.058333 z m 9.24388,0 a 1.0583333,1.0583333 0 0 0 -1.05834,1.058333 1.0583333,1.0583333 0 0 0 1.05834,1.058333 1.0583333,1.0583333 0 0 0 1.05833,-1.058333 1.0583333,1.0583333 0 0 0 -1.05833,-1.058333 z m 9.24336,0 a 1.0583333,1.0583333 0 0 0 -1.05833,1.058333 1.0583333,1.0583333 0 0 0 1.05833,1.058333 1.0583333,1.0583333 0 0 0 1.05833,-1.058333 1.0583333,1.0583333 0 0 0 -1.05833,-1.058333 z m 9.24336,0 a 1.0583333,1.0583333 0 0 0 -1.05833,1.058333 1.0583333,1.0583333 0 0 0 1.05833,1.058333 1.0583333,1.0583333 0 0 0 1.05834,-1.058333 1.0583333,1.0583333 0 0 0 -1.05834,-1.058333 z m -46.21733,9.791133 a 1.0583333,1.0583333 0 0 0 -1.05833,1.058334 1.0583333,1.0583333 0 0 0 1.05833,1.058333 1.0583333,1.0583333 0 0 0 1.05833,-1.058333 1.0583333,1.0583333 0 0 0 -1.05833,-1.058334 z m 9.24336,0 a 1.0583333,1.0583333 0 0 0 -1.05833,1.058334 1.0583333,1.0583333 0 0 0 1.05833,1.058333 1.0583333,1.0583333 0 0 0 1.05834,-1.058333 1.0583333,1.0583333 0 0 0 -1.05834,-1.058334 z m 9.24337,0 a 1.0583333,1.0583333 0 0 0 -1.05834,1.058334 1.0583333,1.0583333 0 0 0 1.05834,1.058333 1.0583333,1.0583333 0 0 0 1.05833,-1.058333 1.0583333,1.0583333 0 0 0 -1.05833,-1.058334 z m 9.24336,0 a 1.0583333,1.0583333 0 0 0 -1.05833,1.058334 1.0583333,1.0583333 0 0 0 1.05833,1.058333 1.0583333,1.0583333 0 0 0 1.05833,-1.058333 1.0583333,1.0583333 0 0 0 -1.05833,-1.058334 z m 9.24336,0 a 1.0583333,1.0583333 0 0 0 -1.05833,1.058334 1.0583333,1.0583333 0 0 0 1.05833,1.058333 1.0583333,1.0583333 0 0 0 1.05834,-1.058333 1.0583333,1.0583333 0 0 0 -1.05834,-1.058334 z m 9.24337,0 a 1.0583333,1.0583333 0 0 0 -1.05834,1.058334 1.0583333,1.0583333 0 0 0 1.05834,1.058333 1.0583333,1.0583333 0 0 0 1.05833,-1.058333 1.0583333,1.0583333 0 0 0 -1.05833,-1.058334 z" />
    <path
       id="path852-3"
       style="fill:#c2c3d1;fill-opacity:1;stroke:none;stroke-width:0.120888"
       d="m 58.507699,88.159467 a 0.50871814,0.50871814 0 0 0 -0.508721,0.508718 0.50871814,0.50871814 0 0 0 0.508721,0.508718 0.50871814,0.50871814 0 0 0 0.508717,-0.508718 0.50871814,0.50871814 0 0 0 -0.508717,-0.508718 z m 4.443085,0 a 0.50871814,0.50871814 0 0 0 -0.508721,0.508718 0.50871814,0.50871814 0 0 0 0.508721,0.508718 0.50871814,0.50871814 0 0 0 0.508717,-0.508718 0.50871814,0.50871814 0 0 0 -0.508717,-0.508718 z m 4.443086,0 a 0.50871814,0.50871814 0 0 0 -0.508717,0.508718 0.50871814,0.50871814 0 0 0 0.508717,0.508718 0.50871814,0.50871814 0 0 0 0.508721,-0.508718 0.50871814,0.50871814 0 0 0 -0.508721,-0.508718 z m 4.443335,0 a 0.50871814,0.50871814 0 0 0 -0.508717,0.508718 0.50871814,0.50871814 0 0 0 0.508717,0.508718 0.50871814,0.50871814 0 0 0 0.508721,-0.508718 0.50871814,0.50871814 0 0 0 -0.508721,-0.508718 z m 4.44309,0 a 0.50871814,0.50871814 0 0 0 -0.508722,0.508718 0.50871814,0.50871814 0 0 0 0.508722,0.508718 0.50871814,0.50871814 0 0 0 0.508716,-0.508718 0.50871814,0.50871814 0 0 0 -0.508716,-0.508718 z m 4.443085,0 a 0.50871814,0.50871814 0 0 0 -0.508722,0.508718 0.50871814,0.50871814 0 0 0 0.508722,0.508718 0.50871814,0.50871814 0 0 0 0.508716,-0.508718 0.50871814,0.50871814 0 0 0 -0.508716,-0.508718 z m -22.215681,4.706388 a 0.50871814,0.50871814 0 0 0 -0.508721,0.508718 0.50871814,0.50871814 0 0 0 0.508721,0.50872 0.50871814,0.50871814 0 0 0 0.508717,-0.50872 0.50871814,0.50871814 0 0 0 -0.508717,-0.508718 z m 4.443085,0 a 0.50871814,0.50871814 0 0 0 -0.508721,0.508718 0.50871814,0.50871814 0 0 0 0.508721,0.50872 0.50871814,0.50871814 0 0 0 0.508717,-0.50872 0.50871814,0.50871814 0 0 0 -0.508717,-0.508718 z m 4.443086,0 a 0.50871814,0.50871814 0 0 0 -0.508717,0.508718 0.50871814,0.50871814 0 0 0 0.508717,0.50872 0.50871814,0.50871814 0 0 0 0.508721,-0.50872 0.50871814,0.50871814 0 0 0 -0.508721,-0.508718 z m 4.44309,0 a 0.50871814,0.50871814 0 0 0 -0.508722,0.508718 0.50871814,0.50871814 0 0 0 0.508722,0.50872 0.50871814,0.50871814 0 0 0 0.508716,-0.50872 0.50871814,0.50871814 0 0 0 -0.508716,-0.508718 z m 4.443085,0 a 0.50871814,0.50871814 0 0 0 -0.508722,0.508718 0.50871814,0.50871814 0 0 0 0.508722,0.50872 0.50871814,0.50871814 0 0 0 0.508716,-0.50872 0.50871814,0.50871814 0 0 0 -0.508716,-0.508718 z m 4.443085,0 a 0.50871814,0.50871814 0 0 0 -0.508717,0.508718 0.50871814,0.50871814 0 0 0 0.508717,0.50872 0.50871814,0.50871814 0 0 0 0.508721,-0.50872 0.50871814,0.50871814 0 0 0 -0.508721,-0.508718 z m -22.215431,4.221021 a 0.50871814,0.50871814 0 0 0 -0.508721,0.508717 0.50871814,0.50871814 0 0 0 0.508721,0.508716 0.50871814,0.50871814 0 0 0 0.508717,-0.508716 0.50871814,0.50871814 0 0 0 -0.508717,-0.508717 z m 4.443085,0 a 0.50871814,0.50871814 0 0 0 -0.508721,0.508717 0.50871814,0.50871814 0 0 0 0.508721,0.508716 0.50871814,0.50871814 0 0 0 0.508717,-0.508716 0.50871814,0.50871814 0 0 0 -0.508717,-0.508717 z m 4.443086,0 a 0.50871814,0.50871814 0 0 0 -0.508717,0.508717 0.50871814,0.50871814 0 0 0 0.508717,0.508716 0.50871814,0.50871814 0 0 0 0.508721,-0.508716 0.50871814,0.50871814 0 0 0 -0.508721,-0.508717 z m 4.443335,0 a 0.50871814,0.50871814 0 0 0 -0.508717,0.508717 0.50871814,0.50871814 0 0 0 0.508717,0.508716 0.50871814,0.50871814 0 0 0 0.508721,-0.508716 0.50871814,0.50871814 0 0 0 -0.508721,-0.508717 z m 4.44309,0 a 0.50871814,0.50871814 0 0 0 -0.508722,0.508717 0.50871814,0.50871814 0 0 0 0.508722,0.508716 0.50871814,0.50871814 0 0 0 0.508716,-0.508716 0.50871814,0.50871814 0 0 0 -0.508716,-0.508717 z m 4.443085,0 a 0.50871814,0.50871814 0 0 0 -0.508722,0.508717 0.50871814,0.50871814 0 0 0 0.508722,0.508716 0.50871814,0.50871814 0 0 0 0.508716,-0.508716 0.50871814,0.50871814 0 0 0 -0.508716,-0.508717 z m -22.215681,4.706384 a 0.50871814,0.50871814 0 0 0 -0.508721,0.50872 0.50871814,0.50871814 0 0 0 0.508721,0.50872 0.50871814,0.50871814 0 0 0 0.508717,-0.50872 0.50871814,0.50871814 0 0 0 -0.508717,-0.50872 z m 4.443085,0 a 0.50871814,0.50871814 0 0 0 -0.508721,0.50872 0.50871814,0.50871814 0 0 0 0.508721,0.50872 0.50871814,0.50871814 0 0 0 0.508717,-0.50872 0.50871814,0.50871814 0 0 0 -0.508717,-0.50872 z m 4.443086,0 a 0.50871814,0.50871814 0 0 0 -0.508717,0.50872 0.50871814,0.50871814 0 0 0 0.508717,0.50872 0.50871814,0.50871814 0 0 0 0.508721,-0.50872 0.50871814,0.50871814 0 0 0 -0.508721,-0.50872 z m 4.44309,0 a 0.50871814,0.50871814 0 0 0 -0.508722,0.50872 0.50871814,0.50871814 0 0 0 0.508722,0.50872 0.50871814,0.50871814 0 0 0 0.508716,-0.50872 0.50871814,0.50871814 0 0 0 -0.508716,-0.50872 z m 4.443085,0 a 0.50871814,0.50871814 0 0 0 -0.508722,0.50872 0.50871814,0.50871814 0 0 0 0.508722,0.50872 0.50871814,0.50871814 0 0 0 0.508716,-0.50872 0.50871814,0.50871814 0 0 0 -0.508716,-0.50872 z m 4.443085,0 a 0.50871814,0.50871814 0 0 0 -0.508717,0.50872 0.50871814,0.50871814 0 0 0 0.508717,0.50872 0.50871814,0.50871814 0 0 0 0.508721,-0.50872 0.50871814,0.50871814 0 0 0 -0.508721,-0.50872 z m -22.215431,4.42471 a 0.50871814,0.50871814 0 0 0 -0.508721,0.50872 0.50871814,0.50871814 0 0 0 0.508721,0.50871 0.50871814,0.50871814 0 0 0 0.508717,-0.50871 0.50871814,0.50871814 0 0 0 -0.508717,-0.50872 z m 4.443085,0 a 0.50871814,0.50871814 0 0 0 -0.508721,0.50872 0.50871814,0.50871814 0 0 0 0.508721,0.50871 0.50871814,0.50871814 0 0 0 0.508717,-0.50871 0.50871814,0.50871814 0 0 0 -0.508717,-0.50872 z m 4.443086,0 a 0.50871814,0.50871814 0 0 0 -0.508717,0.50872 0.50871814,0.50871814 0 0 0 0.508717,0.50871 0.50871814,0.50871814 0 0 0 0.508721,-0.50871 0.50871814,0.50871814 0 0 0 -0.508721,-0.50872 z m 4.443335,0 a 0.50871814,0.50871814 0 0 0 -0.508717,0.50872 0.50871814,0.50871814 0 0 0 0.508717,0.50871 0.50871814,0.50871814 0 0 0 0.508721,-0.50871 0.50871814,0.50871814 0 0 0 -0.508721,-0.50872 z m 4.44309,0 a 0.50871814,0.50871814 0 0 0 -0.508722,0.50872 0.50871814,0.50871814 0 0 0 0.508722,0.50871 0.50871814,0.50871814 0 0 0 0.508716,-0.50871 0.50871814,0.50871814 0 0 0 -0.508716,-0.50872 z m 4.443085,0 a 0.50871814,0.50871814 0 0 0 -0.508722,0.50872 0.50871814,0.50871814 0 0 0 0.508722,0.50871 0.50871814,0.50871814 0 0 0 0.508716,-0.50871 0.50871814,0.50871814 0 0 0 -0.508716,-0.50872 z m -22.215681,4.70639 a 0.50871814,0.50871814 0 0 0 -0.508721,0.50871 0.50871814,0.50871814 0 0 0 0.508721,0.50872 0.50871814,0.50871814 0 0 0 0.508717,-0.50872 0.50871814,0.50871814 0 0 0 -0.508717,-0.50871 z m 4.443085,0 a 0.50871814,0.50871814 0 0 0 -0.508721,0.50871 0.50871814,0.50871814 0 0 0 0.508721,0.50872 0.50871814,0.50871814 0 0 0 0.508717,-0.50872 0.50871814,0.50871814 0 0 0 -0.508717,-0.50871 z m 4.443086,0 a 0.50871814,0.50871814 0 0 0 -0.508717,0.50871 0.50871814,0.50871814 0 0 0 0.508717,0.50872 0.50871814,0.50871814 0 0 0 0.508721,-0.50872 0.50871814,0.50871814 0 0 0 -0.508721,-0.50871 z m 4.44309,0 a 0.50871814,0.50871814 0 0 0 -0.508722,0.50871 0.50871814,0.50871814 0 0 0 0.508722,0.50872 0.50871814,0.50871814 0 0 0 0.508716,-0.50872 0.50871814,0.50871814 0 0 0 -0.508716,-0.50871 z m 4.443085,0 a 0.50871814,0.50871814 0 0 0 -0.508722,0.50871 0.50871814,0.50871814 0 0 0 0.508722,0.50872 0.50871814,0.50871814 0 0 0 0.508716,-0.50872 0.50871814,0.50871814 0 0 0 -0.508716,-0.50871 z m 4.443085,0 a 0.50871814,0.50871814 0 0 0 -0.508717,0.50871 0.50871814,0.50871814 0 0 0 0.508717,0.50872 0.50871814,0.50871814 0 0 0 0.508721,-0.50872 0.50871814,0.50871814 0 0 0 -0.508721,-0.50871 z" />
  </g>
</svg>
