<svg width="32" height="32" viewBox="0 0 32 32" fill="#ffffff" xmlns="http://www.w3.org/2000/svg">
  <path d="M16 4C9.40845 4 4 9.40845 4 16C4 22.5916 9.40845 28 16 28C22.5915 28 28 22.5916 28 16C28 9.40845 22.5915 4 16 4ZM23.4366 10.9296L17.5211 17.0141C17.1831 17.5211 16.507 17.6901 16 17.6901C15.493 17.6901 14.8169 17.5211 14.3099 17.0141L8.39437 10.9296H23.4366ZM8.05634 11.2676L12.6197 15.831L8.05634 20.5634V11.2676ZM8.39437 21.0704L12.9577 16.338L13.9718 17.3521C14.4789 17.8592 15.1549 18.1972 15.831 18.1972C16.507 18.1972 17.3521 17.8592 17.6901 17.3521L18.7042 16.338L23.2676 21.0704H8.39437ZM23.7746 20.5634L19.2113 15.831L23.7746 11.0986V20.5634Z" />
</svg>