<svg width="32" height="32" viewBox="0 0 32 32" fill="#ffffff" xmlns="http://www.w3.org/2000/svg">
  <path d="M17.3329 15.1451L15.6828 14.7789C15.0551 14.6359 14.3326 14.447 14.3326 13.8552C14.3326 13.2621 14.8394 12.8477 15.7544 12.8477C17.5984 12.8477 17.43 14.115 18.3455 14.115C18.8273 14.115 19.249 13.8317 19.249 13.3447C19.249 12.2081 17.43 11.3552 15.887 11.3552C14.2119 11.3552 12.4281 12.0666 12.4281 13.9612C12.4281 14.8736 12.754 15.8442 14.5496 16.2945L16.7791 16.8511C17.4538 17.0174 17.6226 17.397 17.6226 17.7394C17.6226 18.3088 17.057 18.8651 16.0323 18.8651C14.0308 18.8651 14.3086 17.3248 13.236 17.3248C12.754 17.3248 12.4043 17.6568 12.4043 18.1305C12.4043 19.0541 13.5256 20.2866 16.0323 20.2866C18.4173 20.2866 19.5991 19.137 19.5991 17.5975C19.5991 16.6034 19.1407 15.548 17.3329 15.1451Z" />
  <path d="M16 4C9.3736 4 4 9.3736 4 16C4 22.6264 9.3736 28 16 28C22.6264 28 28 22.6264 28 16C28 9.3736 22.6264 4 16 4ZM22.2477 22.23C21.4587 23.0193 20.4103 23.4531 19.2948 23.4531C18.5723 23.4531 17.8647 23.2653 17.2398 22.9117C16.8342 22.9836 16.4188 23.0215 16.0042 23.0215C15.0517 23.0215 14.1274 22.8348 13.2578 22.4662C12.417 22.1117 11.6628 21.6025 11.0144 20.9545C10.3668 20.3066 9.85809 19.5524 9.50305 18.712C9.13464 17.8419 8.94824 16.9181 8.94824 15.9654C8.94824 15.5574 8.98486 15.1489 9.05444 14.7492C8.71149 14.1323 8.52893 13.4343 8.52893 12.7241C8.52893 11.6084 8.96362 10.5594 9.75226 9.77057C10.5413 8.98138 11.5903 8.54688 12.7059 8.54688C13.3893 8.54688 14.0646 8.71735 14.6648 9.0365C14.6659 9.03632 14.6672 9.03632 14.6681 9.03595C15.1057 8.95209 15.5552 8.90979 16.0042 8.90979C16.9565 8.90979 17.8807 9.09637 18.7502 9.46423C19.5901 9.81964 20.3453 10.3283 20.9927 10.9761C21.6411 11.6241 22.1496 12.3787 22.505 13.219C22.8734 14.0889 23.0598 15.0129 23.0598 15.9654C23.0598 16.3948 23.0193 16.8245 22.9423 17.2444C23.2876 17.8636 23.4713 18.564 23.4713 19.2767C23.4711 20.3923 23.0369 21.4415 22.2477 22.23Z" />
</svg>