<svg width="32" height="32" viewBox="0 0 32 32" fill="#ffffff" xmlns="http://www.w3.org/2000/svg">
  <path d="M16 4C9.40845 4 4 9.40845 4 16C4 22.5915 9.40845 28 16 28C22.5915 28 28 22.5915 28 16C28 9.40845 22.5915 4 16 4ZM23.0986 21.5775C22.4225 22.9296 20.7324 23.6056 19.2113 22.9296C17.1831 22.0845 15.3239 20.7324 13.6338 19.3803L12.6197 18.1972C11.0986 16.507 9.91549 14.6479 9.07042 12.6197C8.39437 11.2676 9.07042 9.57746 10.4225 8.73239C11.0986 8.39437 11.9437 8.56338 12.4507 9.23944L13.9718 11.6056C14.1408 11.9437 14.1408 12.4507 13.8028 12.7887L13.4648 13.4648C13.1268 14.1408 13.1268 14.8169 13.4648 15.493C13.9718 16 14.3099 16.507 14.8169 17.0141C15.493 17.5211 16 18.0282 16.507 18.3662C17.0141 18.8732 17.8592 18.8732 18.5352 18.3662L19.0423 18.0282C19.3803 17.6901 19.8873 17.6901 20.3944 18.0282L22.5915 19.7183C23.2676 20.0563 23.6056 20.9014 23.0986 21.5775Z" />
</svg>