<?xml version="1.0" encoding="UTF-8" standalone="no"?>
<svg
   xmlns:dc="http://purl.org/dc/elements/1.1/"
   xmlns:cc="http://creativecommons.org/ns#"
   xmlns:rdf="http://www.w3.org/1999/02/22-rdf-syntax-ns#"
   xmlns:svg="http://www.w3.org/2000/svg"
   xmlns="http://www.w3.org/2000/svg"
   xmlns:sodipodi="http://sodipodi.sourceforge.net/DTD/sodipodi-0.dtd"
   xmlns:inkscape="http://www.inkscape.org/namespaces/inkscape"
   width="128"
   height="128"
   viewBox="0 0 33.866666 33.866668"
   version="1.1"
   id="svg8"
   inkscape:version="1.0.2 (e86c870879, 2021-01-15, custom)"
   sodipodi:docname="berths.svg">
  <defs
     id="defs2" />
  <sodipodi:namedview
     id="base"
     pagecolor="#ffffff"
     bordercolor="#666666"
     borderopacity="1.0"
     inkscape:pageopacity="0.0"
     inkscape:pageshadow="2"
     inkscape:zoom="8"
     inkscape:cx="66.404661"
     inkscape:cy="60.758783"
     inkscape:document-units="px"
     inkscape:current-layer="layer1"
     inkscape:document-rotation="0"
     showgrid="true"
     inkscape:window-width="1920"
     inkscape:window-height="1017"
     inkscape:window-x="-8"
     inkscape:window-y="1064"
     inkscape:window-maximized="1"
     units="px"
     showguides="true"
     inkscape:guide-bbox="true"
     inkscape:snap-bbox="true"
     inkscape:object-paths="true"
     inkscape:bbox-nodes="false"
     inkscape:snap-bbox-edge-midpoints="false"
     inkscape:snap-nodes="false">
    <inkscape:grid
       type="xygrid"
       id="grid906" />
    <sodipodi:guide
       position="1.3229166,28.575001"
       orientation="1,0"
       id="guide908" />
    <sodipodi:guide
       position="32.54375,26.19375"
       orientation="1,0"
       id="guide910" />
    <sodipodi:guide
       position="23.283333,32.543751"
       orientation="0,-1"
       id="guide912" />
    <sodipodi:guide
       position="10.847916,1.3229167"
       orientation="0,-1"
       id="guide914" />
    <sodipodi:guide
       position="16.933333,21.431251"
       orientation="1,0"
       id="guide916" />
    <sodipodi:guide
       position="8.4666665,30.956251"
       orientation="1,0"
       id="guide918" />
    <sodipodi:guide
       position="14.2875,16.933334"
       orientation="0,-1"
       id="guide922" />
    <sodipodi:guide
       position="13.49375,25.4"
       orientation="0,-1"
       id="guide924" />
    <sodipodi:guide
       position="11.1125,8.466667"
       orientation="0,-1"
       id="guide926" />
    <sodipodi:guide
       position="24.870834,29.633334"
       orientation="1,0"
       id="guide2176" />
  </sodipodi:namedview>
  <metadata
     id="metadata5">
    <rdf:RDF>
      <cc:Work
         rdf:about="">
        <dc:format>image/svg+xml</dc:format>
        <dc:type
           rdf:resource="http://purl.org/dc/dcmitype/StillImage" />
        <dc:title></dc:title>
      </cc:Work>
    </rdf:RDF>
  </metadata>
  <g
     inkscape:label="Layer 1"
     inkscape:groupmode="layer"
     id="layer1">
    <path
       id="rect1141-5"
       style="fill:#000000;fill-opacity:1;stroke:none;stroke-width:0.999999;stroke-miterlimit:4;stroke-dasharray:none;stroke-opacity:1"
       d="M 6.84375 12.220703 L 6.84375 115.10352 L 11.970703 115.10352 L 11.970703 105.05469 L 84.59375 105.05469 L 84.59375 115.10352 L 89.720703 115.10352 L 89.720703 105.05469 L 115.88867 105.05469 L 115.88867 115.10352 L 121.01562 115.10352 L 121.01562 12.220703 L 115.88867 12.220703 L 115.88867 40.482422 L 89.720703 40.482422 L 89.720703 12.220703 L 84.59375 12.220703 L 84.59375 40.482422 L 77.126953 40.482422 L 77.126953 37.064453 C 77.126953 32.49231 73.203089 28.878906 68.599609 28.878906 L 44.484375 28.878906 C 45.255937 27.679772 45.708984 26.252682 45.708984 24.714844 C 45.708984 20.454702 42.279673 17.025391 38.019531 17.025391 L 21.402344 17.025391 C 17.142202 17.025391 13.712891 20.454702 13.712891 24.714844 C 13.712891 26.261744 14.169264 27.696926 14.949219 28.900391 C 13.900991 28.954448 12.896201 29.199461 11.970703 29.59375 L 11.970703 12.220703 L 6.84375 12.220703 z M 15.398438 33.882812 L 68.599609 33.882812 C 70.663719 33.882812 72.113281 35.337261 72.113281 37.064453 L 72.113281 40.482422 L 11.970703 40.482422 L 11.970703 36.371094 C 12.301379 34.965941 13.618649 33.882814 15.398438 33.882812 z M 11.970703 52.501953 L 84.59375 52.501953 L 84.59375 93.035156 L 77.121094 93.035156 C 77.121502 93.002247 77.126953 92.97051 77.126953 92.9375 L 77.126953 88.810547 C 77.126953 84.238403 73.203089 80.625 68.599609 80.625 L 45.117188 80.625 C 45.550638 79.66096 45.796875 78.593955 45.796875 77.464844 C 45.796875 73.204702 42.367563 69.775391 38.107422 69.775391 L 21.490234 69.775391 C 17.230093 69.775391 13.800781 73.204702 13.800781 77.464844 C 13.800781 78.612614 14.056838 79.695503 14.503906 80.671875 C 13.615221 80.763223 12.764789 80.994926 11.970703 81.333984 L 11.970703 52.501953 z M 89.720703 52.501953 L 115.88867 52.501953 L 115.88867 93.035156 L 89.720703 93.035156 L 89.720703 52.501953 z M 15.398438 85.630859 L 68.599609 85.630859 C 70.663719 85.630859 72.113281 87.083356 72.113281 88.810547 L 72.113281 92.9375 C 72.113281 92.970801 72.104587 93.002067 72.103516 93.035156 L 11.970703 93.035156 L 11.970703 88.117188 C 12.301452 86.712525 13.618728 85.630859 15.398438 85.630859 z "
       transform="scale(0.26458334)" />
    <g
       id="rect1288"
       transform="scale(0.26458334)"
       style="opacity:1;stroke:none;stroke-opacity:1;fill:#000000;fill-opacity:1">
      <path
         style="color:#000000;font-style:normal;font-variant:normal;font-weight:normal;font-stretch:normal;font-size:medium;line-height:normal;font-family:sans-serif;font-variant-ligatures:normal;font-variant-position:normal;font-variant-caps:normal;font-variant-numeric:normal;font-variant-alternates:normal;font-variant-east-asian:normal;font-feature-settings:normal;font-variation-settings:normal;text-indent:0;text-align:start;text-decoration:none;text-decoration-line:none;text-decoration-style:solid;text-decoration-color:#000000;letter-spacing:normal;word-spacing:normal;text-transform:none;writing-mode:lr-tb;direction:ltr;text-orientation:mixed;dominant-baseline:auto;baseline-shift:baseline;text-anchor:start;white-space:normal;shape-padding:0;shape-margin:0;inline-size:0;clip-rule:nonzero;display:inline;overflow:visible;visibility:visible;isolation:auto;mix-blend-mode:normal;color-interpolation:sRGB;color-interpolation-filters:linearRGB;solid-color:#000000;solid-opacity:1;vector-effect:none;fill:#000000;fill-opacity:1;fill-rule:nonzero;stroke:none;stroke-width:4.9866;stroke-linecap:butt;stroke-linejoin:miter;stroke-miterlimit:4;stroke-dasharray:none;stroke-dashoffset:0;stroke-opacity:1;color-rendering:auto;image-rendering:auto;shape-rendering:auto;text-rendering:auto;enable-background:accumulate;stop-color:#000000;stop-opacity:1"
         d="m 88.501953,29.162109 c -0.05268,0 -0.0957,0.04107 -0.0957,0.09375 0,0.05268 0.04302,0.0957 0.0957,0.0957 h 28.738277 c 0.0527,0 0.0937,-0.04302 0.0937,-0.0957 0,-0.05268 -0.0411,-0.09375 -0.0937,-0.09375 z m 0.25,15.0625 c -0.05268,0 -0.0957,0.04107 -0.0957,0.09375 0,0.05268 0.04302,0.0957 0.0957,0.0957 h 28.738277 c 0.0527,10e-7 0.0937,-0.04302 0.0937,-0.0957 0,-0.05268 -0.0411,-0.09375 -0.0937,-0.09375 z m -0.625,15.0625 c -0.05268,0 -0.0957,0.04107 -0.0957,0.09375 0,0.05268 0.04302,0.0957 0.0957,0.0957 h 28.738277 c 0.0527,0 0.0937,-0.04302 0.0937,-0.0957 0,-0.05268 -0.0411,-0.09375 -0.0937,-0.09375 z m 0.625,15.0625 c -0.05268,0 -0.0957,0.04107 -0.0957,0.09375 0,0.05268 0.04302,0.0957 0.0957,0.0957 h 28.738277 c 0.0527,0 0.0937,-0.04302 0.0937,-0.0957 0,-0.05268 -0.0411,-0.09375 -0.0937,-0.09375 z m 0,15.0625 c -0.05268,0 -0.0957,0.04107 -0.0957,0.09375 0,0.05268 0.04302,0.0957 0.0957,0.0957 h 28.738277 c 0.0527,10e-7 0.0937,-0.04302 0.0937,-0.0957 0,-0.05268 -0.0411,-0.09375 -0.0937,-0.09375 z"
         id="path1374" />
      <path
         style="color:#000000;font-style:normal;font-variant:normal;font-weight:normal;font-stretch:normal;font-size:medium;line-height:normal;font-family:sans-serif;font-variant-ligatures:normal;font-variant-position:normal;font-variant-caps:normal;font-variant-numeric:normal;font-variant-alternates:normal;font-variant-east-asian:normal;font-feature-settings:normal;font-variation-settings:normal;text-indent:0;text-align:start;text-decoration:none;text-decoration-line:none;text-decoration-style:solid;text-decoration-color:#000000;letter-spacing:normal;word-spacing:normal;text-transform:none;writing-mode:lr-tb;direction:ltr;text-orientation:mixed;dominant-baseline:auto;baseline-shift:baseline;text-anchor:start;white-space:normal;shape-padding:0;shape-margin:0;inline-size:0;clip-rule:nonzero;display:inline;overflow:visible;visibility:visible;isolation:auto;mix-blend-mode:normal;color-interpolation:sRGB;color-interpolation-filters:linearRGB;solid-color:#000000;solid-opacity:1;vector-effect:none;fill:#000000;fill-opacity:1;fill-rule:nonzero;stroke:none;stroke-linecap:butt;stroke-linejoin:miter;stroke-miterlimit:4;stroke-dasharray:none;stroke-dashoffset:0;stroke-opacity:1;color-rendering:auto;image-rendering:auto;shape-rendering:auto;text-rendering:auto;enable-background:accumulate;stop-color:#000000;stop-opacity:1"
         d="M 88.501953 26.667969 C 87.153456 26.667969 85.912109 27.845741 85.912109 29.255859 C 85.912109 30.665978 87.091835 31.845703 88.501953 31.845703 L 117.24023 31.845703 C 118.65013 31.845703 119.82812 30.604073 119.82812 29.255859 C 119.82812 27.907646 118.58852 26.667969 117.24023 26.667969 L 88.501953 26.667969 z M 88.751953 41.730469 C 87.403456 41.730469 86.162109 42.908241 86.162109 44.318359 C 86.162109 45.728478 87.341835 46.908203 88.751953 46.908203 L 117.49023 46.908203 C 118.90019 46.90823 120.07812 45.666573 120.07812 44.318359 C 120.07812 42.970146 118.83852 41.730469 117.49023 41.730469 L 88.751953 41.730469 z M 88.126953 56.792969 C 86.778456 56.792969 85.537109 57.970741 85.537109 59.380859 C 85.537109 60.790978 86.716835 61.970703 88.126953 61.970703 L 116.86523 61.970703 C 118.27513 61.970703 119.45312 60.729073 119.45312 59.380859 C 119.45312 58.032646 118.21352 56.792969 116.86523 56.792969 L 88.126953 56.792969 z M 88.751953 71.855469 C 87.403456 71.855469 86.162109 73.033241 86.162109 74.443359 C 86.162109 75.853478 87.341835 77.033203 88.751953 77.033203 L 117.49023 77.033203 C 118.90013 77.033203 120.07812 75.791573 120.07812 74.443359 C 120.07812 73.095146 118.83852 71.855469 117.49023 71.855469 L 88.751953 71.855469 z M 88.751953 86.917969 C 87.403456 86.917969 86.162109 88.095741 86.162109 89.505859 C 86.162109 90.915978 87.341835 92.095703 88.751953 92.095703 L 117.49023 92.095703 C 118.90019 92.09573 120.07812 90.854073 120.07812 89.505859 C 120.07812 88.157646 118.83852 86.917969 117.49023 86.917969 L 88.751953 86.917969 z "
         id="path1376" />
    </g>
  </g>
</svg>
