<?xml version="1.0" encoding="UTF-8" standalone="no"?>
<svg
   xmlns:dc="http://purl.org/dc/elements/1.1/"
   xmlns:cc="http://creativecommons.org/ns#"
   xmlns:rdf="http://www.w3.org/1999/02/22-rdf-syntax-ns#"
   xmlns:svg="http://www.w3.org/2000/svg"
   xmlns="http://www.w3.org/2000/svg"
   xmlns:sodipodi="http://sodipodi.sourceforge.net/DTD/sodipodi-0.dtd"
   xmlns:inkscape="http://www.inkscape.org/namespaces/inkscape"
   width="128"
   height="128"
   viewBox="0 0 33.866666 33.866668"
   version="1.1"
   id="svg8"
   inkscape:version="1.0.2 (e86c870879, 2021-01-15, custom)"
   sodipodi:docname="propeller.svg">
  <defs
     id="defs2" />
  <sodipodi:namedview
     id="base"
     pagecolor="#ffffff"
     bordercolor="#666666"
     borderopacity="1.0"
     inkscape:pageopacity="0.0"
     inkscape:pageshadow="2"
     inkscape:zoom="2.8284271"
     inkscape:cx="55.90758"
     inkscape:cy="57.110216"
     inkscape:document-units="px"
     inkscape:current-layer="layer1"
     inkscape:document-rotation="0"
     showgrid="false"
     inkscape:window-width="2560"
     inkscape:window-height="1377"
     inkscape:window-x="1912"
     inkscape:window-y="-8"
     inkscape:window-maximized="1"
     units="px"
     showguides="false"
     inkscape:guide-bbox="true"
     inkscape:snap-bbox="true"
     inkscape:object-paths="true"
     inkscape:bbox-nodes="true"
     inkscape:snap-bbox-edge-midpoints="true"
     inkscape:snap-nodes="true">
    <inkscape:grid
       type="xygrid"
       id="grid906" />
    <sodipodi:guide
       position="1.3229166,28.575001"
       orientation="1,0"
       id="guide908" />
    <sodipodi:guide
       position="32.54375,26.19375"
       orientation="1,0"
       id="guide910" />
    <sodipodi:guide
       position="23.283333,32.543751"
       orientation="0,-1"
       id="guide912" />
    <sodipodi:guide
       position="10.847916,1.3229167"
       orientation="0,-1"
       id="guide914" />
    <sodipodi:guide
       position="16.933333,21.431251"
       orientation="1,0"
       id="guide916" />
    <sodipodi:guide
       position="8.4666665,30.956251"
       orientation="1,0"
       id="guide918" />
    <sodipodi:guide
       position="26.458334,10.054167"
       orientation="1,0"
       id="guide920" />
    <sodipodi:guide
       position="14.2875,16.933334"
       orientation="0,-1"
       id="guide922" />
    <sodipodi:guide
       position="13.49375,25.4"
       orientation="0,-1"
       id="guide924" />
    <sodipodi:guide
       position="11.1125,8.466667"
       orientation="0,-1"
       id="guide926" />
  </sodipodi:namedview>
  <metadata
     id="metadata5">
    <rdf:RDF>
      <cc:Work
         rdf:about="">
        <dc:format>image/svg+xml</dc:format>
        <dc:type
           rdf:resource="http://purl.org/dc/dcmitype/StillImage" />
        <dc:title />
      </cc:Work>
    </rdf:RDF>
  </metadata>
  <g
     inkscape:label="Layer 1"
     inkscape:groupmode="layer"
     id="layer1">
    <circle
       style="opacity:0.996;fill:#000000;stroke:none;stroke-width:2.10753"
       id="path2977"
       cx="16.933334"
       cy="16.933334"
       r="1.0583334" />
    <ellipse
       style="opacity:0.996;fill:none;stroke:#000000;stroke-width:1.23243;stroke-miterlimit:4;stroke-dasharray:none;stroke-opacity:1"
       id="path2977-7"
       cx="16.933331"
       cy="16.933332"
       rx="2.294204"
       ry="2.294205" />
    <path
       id="path2999"
       style="fill:#000000;fill-opacity:1;stroke:none;stroke-width:0.999999px;stroke-linecap:butt;stroke-linejoin:miter;stroke-opacity:1"
       d="M 101.86719 52.927734 C 93.573738 52.74706 82.115492 70.067951 73.232422 73.269531 C 73.176291 73.289762 73.113597 73.306403 73.056641 73.326172 A 13 12.999999 0 0 1 64 77 A 13 12.999999 0 0 1 58.419922 75.740234 C 60.477555 79.384786 73.534497 101.67444 85 101 C 102 100 117.46167 72.125098 107.0332 56.238281 C 105.52703 53.943762 103.78106 52.969428 101.86719 52.927734 z "
       transform="scale(0.26458334)" />
    <path
       id="path2999-5"
       style="fill:#000000;fill-opacity:1;stroke:none;stroke-width:0.264583px;stroke-linecap:butt;stroke-linejoin:miter;stroke-opacity:1"
       d="m 14.531308,27.035036 c 1.156571,-1.865374 -1.248959,-6.805678 -0.783735,-9.260282 0.0029,-0.01554 0.0076,-0.03206 0.01076,-0.04767 a 3.4395832,3.4395834 30.551887 0 1 0.380963,-2.557668 3.4395832,3.4395834 30.551887 0 1 1.037517,-1.101997 c -1.107151,-0.02134 -7.9419324,-0.04409 -9.3302862,2.659046 -2.0585225,4.00796 2.2133219,11.279885 7.2357012,11.040407 0.725376,-0.03459 1.1822,-0.301368 1.449101,-0.731838 z" />
    <path
       id="path2999-5-8"
       style="fill:#000000;fill-opacity:1;stroke:none;stroke-width:0.264583px;stroke-linecap:butt;stroke-linejoin:miter;stroke-opacity:1"
       d="m 9.6937316,9.4711555 c 0.9666064,1.9705205 6.4302394,2.5552265 8.2632354,4.2527675 0.01161,0.01078 0.02317,0.02341 0.0347,0.03441 a 3.4395834,3.4395832 62.622654 0 1 1.965069,1.680862 3.4395834,3.4395832 62.622654 0 1 0.382939,1.464309 C 20.945609,15.976635 24.593932,10.196972 23.040484,7.5852184 20.737173,3.712749 12.30679,3.4715332 9.8430046,7.8546168 9.4871626,8.4876609 9.4706736,9.0164215 9.6937376,9.4711565 Z" />
  </g>
</svg>
