<svg width="32" height="32" viewBox="0 0 32 32" fill="#e5e9f0" xmlns="http://www.w3.org/2000/svg">
  <path d="M16 4C9.38323 4 4 9.38323 4 16C4 22.6163 9.38323 28 16 28C22.6163 28 28 22.6163 28 16C28 9.38323 22.6173 4 16 4ZM18.9843 16.4225H17.032C17.032 19.5416 17.032 23.381 17.032 23.381H14.139C14.139 23.381 14.139 19.5788 14.139 16.4225H12.7639V13.9631H14.139V12.3724C14.139 11.2331 14.6804 9.45283 17.0586 9.45283L19.2023 9.46105V11.8484C19.2023 11.8484 17.8996 11.8484 17.6463 11.8484C17.3931 11.8484 17.0329 11.975 17.0329 12.5183V13.9636H19.2371L18.9843 16.4225Z" />
</svg>
