<svg width="32" height="32" viewBox="0 0 32 32" fill="#e5e9f0" xmlns="http://www.w3.org/2000/svg">
  <path d="M16.0002 18.4021C17.3242 18.4021 18.4035 17.3246 18.4035 15.9997C18.4035 15.4767 18.2324 14.9939 17.9492 14.5994C17.5127 13.9943 16.8031 13.5974 16.0017 13.5974C15.1998 13.5974 14.4907 13.9938 14.0532 14.5989C13.769 14.9934 13.5994 15.4762 13.5989 15.9992C13.5974 17.3242 14.6758 18.4021 16.0002 18.4021Z" />
  <path d="M21.2453 13.0607V11.047V10.7473L20.9441 10.7483L18.9314 10.7546L18.9391 13.0684L21.2453 13.0607Z" />
  <path d="M16 4C9.38323 4 4 9.38323 4 16C4 22.6163 9.38323 28 16 28C22.6163 28 28 22.6163 28 16C28 9.38323 22.6173 4 16 4ZM22.8246 14.5997V20.1874C22.8246 21.6428 21.6413 22.8256 20.1869 22.8256H11.8131C10.3582 22.8256 9.17538 21.6428 9.17538 20.1874V14.5997V11.8136C9.17538 10.3587 10.3582 9.17586 11.8131 9.17586H20.1864C21.6413 9.17586 22.8246 10.3587 22.8246 11.8136V14.5997Z" />
  <path d="M19.734 15.9994C19.734 18.0571 18.0596 19.7324 16.001 19.7324C13.9423 19.7324 12.2684 18.0571 12.2684 15.9994C12.2684 15.5045 12.3671 15.0312 12.543 14.5991H10.5056V20.1868C10.5056 20.909 11.0919 21.4938 11.8136 21.4938H20.1869C20.9076 21.4938 21.4949 20.909 21.4949 20.1868V14.5991H19.4566C19.634 15.0312 19.734 15.5045 19.734 15.9994Z" />
</svg>
