<svg width="32" height="32" viewBox="0 0 32 32" fill="#e5e9f0" xmlns="http://www.w3.org/2000/svg">
  <path d="M16 4C9.38323 4 4 9.38323 4 16C4 22.6163 9.38323 28 16 28C22.6163 28 28 22.6163 28 16C28 9.38323 22.6173 4 16 4ZM21.3533 13.2535C21.3586 13.3724 21.3615 13.4923 21.3615 13.6122C21.3615 17.2621 18.5841 21.4693 13.5025 21.4693C11.9426 21.4693 10.4906 21.0135 9.26867 20.2294C9.48473 20.2551 9.70466 20.2681 9.9275 20.2681C11.2219 20.2681 12.4125 19.8263 13.3579 19.0858C12.1495 19.0636 11.1291 18.265 10.7777 17.1673C10.9459 17.1992 11.1195 17.2171 11.2969 17.2171C11.5487 17.2171 11.7933 17.1842 12.0248 17.1209C10.7613 16.8676 9.80955 15.7516 9.80955 14.4126C9.80955 14.401 9.80956 14.3889 9.81004 14.3778C10.1822 14.5842 10.6081 14.7089 11.0605 14.723C10.32 14.2285 9.83227 13.3826 9.83227 12.4246C9.83227 11.918 9.9681 11.4433 10.2059 11.0354C11.5676 12.7068 13.6035 13.806 15.8985 13.922C15.8511 13.7195 15.8274 13.5092 15.8274 13.2922C15.8274 11.7672 17.0639 10.5303 18.5889 10.5303C19.3835 10.5303 20.1004 10.8657 20.605 11.4022C21.2348 11.2785 21.8245 11.0494 22.3596 10.7318C22.1518 11.3771 21.7153 11.918 21.1435 12.2602C21.7027 12.1935 22.2364 12.0456 22.7299 11.8257C22.3616 12.3786 21.8932 12.8654 21.3533 13.2535Z" />
</svg>
