<svg width="32" height="32" viewBox="0 0 32 32" fill="#e5e9f0" xmlns="http://www.w3.org/2000/svg">
  <path d="M18.1874 14.2942C17.1603 14.2942 16.7016 14.8588 16.4449 15.2551V14.4315H14.5105C14.5356 14.9767 14.5105 20.2517 14.5105 20.2517H16.4449V17.0001C16.4449 16.8265 16.456 16.652 16.5082 16.5278C16.6484 16.1798 16.9665 15.8197 17.5011 15.8197C18.201 15.8197 18.4809 16.3533 18.4809 17.1364V20.2502H20.4153H20.4158V16.9126C20.4148 15.1261 19.4601 14.2942 18.1874 14.2942ZM16.4435 15.2754H16.4314C16.4353 15.2687 16.4411 15.2624 16.4435 15.2556V15.2754Z" />
  <path d="M13.4381 14.4321H11.5037V20.2523H13.4381V14.4321Z" />
  <path d="M16 4C9.38323 4 4 9.38323 4 16C4 22.6163 9.38323 28 16 28C22.6163 28 28 22.6163 28 16C28 9.38323 22.6173 4 16 4ZM22.3635 21.4277C22.3635 21.9381 21.9401 22.3509 21.4166 22.3509H10.5017C9.9797 22.3509 9.55579 21.9381 9.55579 21.4277V10.3857C9.55579 9.87578 9.9797 9.4625 10.5017 9.4625H21.4166C21.9396 9.4625 22.3635 9.87626 22.3635 10.3857V21.4277Z" />
  <path d="M12.4833 11.6257C11.822 11.6257 11.3889 12.0598 11.3889 12.6311C11.3889 13.1894 11.809 13.6365 12.4576 13.6365H12.4702C13.145 13.6365 13.565 13.1894 13.565 12.6311C13.552 12.0603 13.1455 11.6257 12.4833 11.6257Z" />
</svg>
