<?xml version="1.0" encoding="UTF-8" standalone="no"?>
<!-- Created with Inkscape (http://www.inkscape.org/) -->

<svg
   width="750"
   height="450"
   viewBox="0 0 198.4375 119.06251"
   version="1.1"
   id="svg5"
   inkscape:version="1.1 (c68e22c387, 2021-05-23)"
   sodipodi:docname="logo.svg"
   xmlns:inkscape="http://www.inkscape.org/namespaces/inkscape"
   xmlns:sodipodi="http://sodipodi.sourceforge.net/DTD/sodipodi-0.dtd"
   xmlns="http://www.w3.org/2000/svg"
   xmlns:svg="http://www.w3.org/2000/svg">
  <sodipodi:namedview
     id="namedview7"
     pagecolor="#ffffff"
     bordercolor="#111111"
     borderopacity="1"
     inkscape:pageshadow="0"
     inkscape:pageopacity="0"
     inkscape:pagecheckerboard="1"
     inkscape:document-units="mm"
     showgrid="false"
     inkscape:zoom="0.94867184"
     inkscape:cx="503.33528"
     inkscape:cy="270.37801"
     inkscape:window-width="1920"
     inkscape:window-height="1001"
     inkscape:window-x="-9"
     inkscape:window-y="1057"
     inkscape:window-maximized="1"
     inkscape:current-layer="layer1"
     width="750px"
     units="px" />
  <defs
     id="defs2" />
  <g
     inkscape:label="Layer 1"
     inkscape:groupmode="layer"
     id="layer1">
    <path
       style="fill:#01b1da;fill-opacity:1;stroke:none;stroke-width:0.203409px;stroke-linecap:butt;stroke-linejoin:miter;stroke-opacity:1"
       d="m 22.595999,25.468287 c 83.677251,-1.951853 122.825351,35.710642 134.026681,30.62585 1.37642,7.135761 -0.46387,12.755466 -6.48585,11.116822 C 121.87494,59.520598 95.444134,64.194898 67.322092,70.649048 44.48442,60.989268 63.696972,53.6492 22.595999,25.468287 Z"
       id="path869"
       sodipodi:nodetypes="ccscc" />
    <path
       style="fill:#ffffff;fill-opacity:1;stroke:none;stroke-width:0.203409px;stroke-linecap:butt;stroke-linejoin:miter;stroke-opacity:1"
       d="M 35.634792,29.410241 C 58.318184,29.224186 106.21901,35.43714 139.03546,56.852197 92.239689,39.124073 56.557507,39.568315 56.557507,39.568315 c 4.31342,5.677794 4.193727,9.56697 10.158129,22.893577 C 54.378593,51.475905 58.224232,44.28924 35.634792,29.410241 Z"
       id="path1721"
       sodipodi:nodetypes="ccccc" />
    <path
       style="fill:#01b1da;fill-opacity:1;stroke:none;stroke-width:0.203409px;stroke-linecap:butt;stroke-linejoin:miter;stroke-opacity:1"
       d="m 70.09594,25.370604 c 17.768567,-0.404219 52.18907,6.586352 64.88588,21.164633 -14.93097,-19.791506 -28.4541,-22.8755 -37.092658,-26.733567 -8.638543,-3.858067 -3.137907,1.452493 -27.793222,5.568934 z"
       id="path2421"
       sodipodi:nodetypes="cczc" />
    <path
       style="fill:#01b1da;fill-opacity:1;stroke:none;stroke-width:0.141867px;stroke-linecap:butt;stroke-linejoin:miter;stroke-opacity:1"
       d="m 106.28207,16.691508 c 10.35345,3.829338 28.90866,17.181785 33.43621,31.267736 -4.81295,-18.586051 -12.03774,-24.089648 -16.28838,-29.046651 -4.25064,-4.957008 -2.09508,0.37809 -17.14783,-2.221085 z"
       id="path2421-7"
       sodipodi:nodetypes="cczc" />
    <path
       style="fill:#01b1da;fill-opacity:1;stroke:none;stroke-width:0.0916236px;stroke-linecap:butt;stroke-linejoin:miter;stroke-opacity:1"
       d="m 132.13116,21.233178 c 4.91836,5.15922 12.17143,18.465675 11.33582,28.4871 1.75744,-12.913118 -0.99337,-18.284772 -2.19818,-22.520652 -1.20479,-4.235906 -1.27267,-0.322629 -9.13764,-5.966448 z"
       id="path2421-7-0"
       sodipodi:nodetypes="cczc" />
    <path
       style="fill:#01b1da;fill-opacity:1;stroke:none;stroke-width:0.203409px;stroke-linecap:butt;stroke-linejoin:miter;stroke-opacity:1"
       d="M 44.580011,63.219965 C 56.876815,88.25131 114.86063,49.636603 173.75504,81.86847 138.34563,67.403318 92.120903,79.183265 74.599559,79.139421 57.078213,79.0956 42.896179,77.001771 44.580011,63.219965 Z"
       id="path3134"
       sodipodi:nodetypes="cczc" />
  </g>
</svg>
