<?xml version="1.0" encoding="UTF-8" standalone="no"?>
<!-- Created with Inkscape (http://www.inkscape.org/) -->

<svg
   width="510"
   height="450"
   viewBox="0 0 134.93749 119.06251"
   version="1.1"
   id="svg5"
   inkscape:version="1.1 (c68e22c387, 2021-05-23)"
   sodipodi:docname="logo_ico.svg"
   xmlns:inkscape="http://www.inkscape.org/namespaces/inkscape"
   xmlns:sodipodi="http://sodipodi.sourceforge.net/DTD/sodipodi-0.dtd"
   xmlns="http://www.w3.org/2000/svg"
   xmlns:svg="http://www.w3.org/2000/svg">
  <sodipodi:namedview
     id="namedview7"
     pagecolor="#ffffff"
     bordercolor="#111111"
     borderopacity="1"
     inkscape:pageshadow="0"
     inkscape:pageopacity="0"
     inkscape:pagecheckerboard="1"
     inkscape:document-units="mm"
     showgrid="false"
     inkscape:zoom="0.94867184"
     inkscape:cx="376.84264"
     inkscape:cy="270.37801"
     inkscape:window-width="1920"
     inkscape:window-height="1001"
     inkscape:window-x="-9"
     inkscape:window-y="1057"
     inkscape:window-maximized="1"
     inkscape:current-layer="layer1"
     width="600px"
     units="px" />
  <defs
     id="defs2" />
  <g
     inkscape:label="Layer 1"
     inkscape:groupmode="layer"
     id="layer1">
    <path
       style="fill:#01b1da;fill-opacity:1;stroke:none;stroke-width:0.203409px;stroke-linecap:butt;stroke-linejoin:miter;stroke-opacity:1"
       d="M 0.37099076,25.468287 C 84.048203,23.516434 123.19621,61.178929 134.39754,56.094137 c 1.37642,7.135761 -0.46387,12.755466 -6.48585,11.116822 C 99.649803,59.520598 73.21912,64.194898 45.097078,70.649048 22.259406,60.989268 41.471958,53.6492 0.37099076,25.468287 Z"
       id="path869"
       sodipodi:nodetypes="ccscc" />
    <path
       style="fill:#ffffff;fill-opacity:1;stroke:none;stroke-width:0.203409px;stroke-linecap:butt;stroke-linejoin:miter;stroke-opacity:1"
       d="M 13.409778,29.410241 C 36.09317,29.224186 83.993963,35.43714 116.81032,56.852197 70.014675,39.124073 34.332493,39.568315 34.332493,39.568315 c 4.31342,5.677794 4.193727,9.56697 10.158129,22.893577 C 32.153579,51.475905 35.999218,44.28924 13.409778,29.410241 Z"
       id="path1721"
       sodipodi:nodetypes="ccccc" />
    <path
       style="fill:#01b1da;fill-opacity:1;stroke:none;stroke-width:0.203409px;stroke-linecap:butt;stroke-linejoin:miter;stroke-opacity:1"
       d="M 47.870926,25.370604 C 65.639493,24.966385 100.05987,31.956956 112.75668,46.535237 97.825725,26.743731 84.30267,23.659737 75.664148,19.80167 67.025605,15.943603 72.526241,21.254163 47.870926,25.370604 Z"
       id="path2421"
       sodipodi:nodetypes="cczc" />
    <path
       style="fill:#01b1da;fill-opacity:1;stroke:none;stroke-width:0.141867px;stroke-linecap:butt;stroke-linejoin:miter;stroke-opacity:1"
       d="M 84.057023,16.691508 C 94.410413,20.520846 112.96559,33.873293 117.49314,47.959244 112.68019,29.373193 105.4554,23.869596 101.20476,18.912593 96.954138,13.955585 99.109686,19.290683 84.057023,16.691508 Z"
       id="path2421-7"
       sodipodi:nodetypes="cczc" />
    <path
       style="fill:#01b1da;fill-opacity:1;stroke:none;stroke-width:0.0916236px;stroke-linecap:butt;stroke-linejoin:miter;stroke-opacity:1"
       d="m 109.90602,21.233178 c 4.91836,5.15922 12.17143,18.465675 11.33582,28.4871 1.75744,-12.913118 -0.99337,-18.284772 -2.19818,-22.520652 -1.20479,-4.235906 -1.27267,-0.322629 -9.13764,-5.966448 z"
       id="path2421-7-0"
       sodipodi:nodetypes="cczc" />
    <path
       style="fill:#01b1da;fill-opacity:1;stroke:none;stroke-width:0.19008px;stroke-linecap:butt;stroke-linejoin:miter;stroke-opacity:1"
       d="M 22.337762,63.219965 C 33.075788,88.25131 83.709336,49.636603 135.13809,81.86847 104.21727,67.403318 63.852235,79.183265 48.551946,79.139421 33.251656,79.0956 20.867378,77.001771 22.337762,63.219965 Z"
       id="path3134"
       sodipodi:nodetypes="cczc" />
  </g>
</svg>
